<svg width="28" height="20" viewBox="0 0 28 20" fill="none" xmlns="http://www.w3.org/2000/svg">
<path d="M26.7075 5.96837H23.5893L22.7226 3.94615C21.832 1.86705 19.7064 0.523926 17.307 0.523926H10.6924C8.29341 0.523926 6.16736 1.86705 5.27622 3.94615L4.40955 5.96837H1.29184C0.885065 5.96837 0.586627 6.32518 0.685585 6.69316L0.998086 7.85983C1.06736 8.11941 1.31736 8.3017 1.60434 8.3017H2.64965C1.95017 8.87191 1.49965 9.70073 1.49965 10.635V12.9684C1.49965 13.752 1.82048 14.4593 2.33298 15.0066V17.635C2.33298 18.494 3.07934 19.1906 3.99965 19.1906H5.66632C6.58663 19.1906 7.33299 18.494 7.33299 17.635V16.0795H20.6663V17.635C20.6663 18.494 21.4127 19.1906 22.333 19.1906H23.9997C24.92 19.1906 25.6663 18.494 25.6663 17.635V15.0066C26.1788 14.4598 26.4997 13.7525 26.4997 12.9684V10.635C26.4997 9.70073 26.0492 8.87191 25.3502 8.3017H26.3955C26.6825 8.3017 26.9325 8.11941 27.0018 7.85983L27.3143 6.69316C27.4127 6.32518 27.1143 5.96837 26.7075 5.96837ZM8.37101 5.10163C8.7507 4.21594 9.66997 3.63504 10.6924 3.63504H17.307C18.3294 3.63504 19.2486 4.21594 19.6283 5.10163L20.6663 7.52393H7.33299L8.37101 5.10163ZM5.66632 12.9586C4.66632 12.9586 3.99965 12.3384 3.99965 11.408C3.99965 10.4775 4.66632 9.85726 5.66632 9.85726C6.66632 9.85726 8.16632 11.2529 8.16632 12.1833C8.16632 13.1137 6.66632 12.9586 5.66632 12.9586ZM22.333 12.9586C21.333 12.9586 19.833 13.1137 19.833 12.1833C19.833 11.2529 21.333 9.85726 22.333 9.85726C23.333 9.85726 23.9997 10.4775 23.9997 11.408C23.9997 12.3384 23.333 12.9586 22.333 12.9586Z" fill="#183D69"/>
</svg>
