<svg width="30" height="12" viewBox="0 0 30 12" fill="none" xmlns="http://www.w3.org/2000/svg">
<path d="M27.6402 0.241204C27.3522 0.593204 27.0482 0.929203 26.7442 1.3132C27.1122 1.7612 27.5762 2.3052 27.9922 2.8812C28.6162 3.7452 28.9202 4.7212 28.9042 5.7932C28.9042 6.3372 28.9522 6.8172 29.2882 7.2972C29.7362 7.9532 29.5282 9.3132 28.9522 9.9052C28.7762 10.0972 28.4882 10.2092 28.2322 10.2892C27.9922 10.3692 27.7362 10.3372 27.4962 10.3692C26.5202 10.5292 26.4722 10.5292 26.5522 9.5372C26.7602 6.9772 24.3122 5.9372 22.4242 6.6412C21.2722 7.0732 20.7122 7.9372 20.6802 9.2972C20.6642 10.5132 20.6642 10.5132 19.4162 10.5132C16.3442 10.5132 13.2882 10.5132 10.2162 10.5132C10.0082 10.5132 9.78419 10.4972 9.57619 10.5132C9.14419 10.5292 8.88819 10.3852 8.95219 9.9052C8.96819 9.7612 8.95219 9.6172 8.96819 9.4732C9.12819 7.3132 7.35219 6.1132 5.28819 6.4972C3.78419 6.7852 3.01619 7.8092 3.04819 9.6652C3.06419 10.5132 3.11219 10.5132 2.26419 10.5132C1.35219 10.5132 1.04819 10.3692 0.92019 9.5052C0.79219 8.6412 0.37619 7.6652 1.35219 6.9452C1.40019 6.9132 1.43219 6.8332 1.44819 6.7692C1.76819 5.2012 2.92019 4.7212 4.32819 4.5772C5.38419 4.4652 6.42419 4.1932 7.49619 4.1132C8.18419 4.0652 8.71219 3.7772 9.25619 3.4412C10.2322 2.8492 11.2082 2.2572 12.1842 1.6652C13.3362 0.977204 14.5522 0.593204 15.9282 0.625204C17.9602 0.673204 19.9922 0.561204 22.0242 0.641204C23.6882 0.705204 25.2722 0.433203 26.8722 0.0972034C27.0802 0.0492034 27.2722 0.0492031 27.4802 0.0332031C27.5282 0.0812031 27.5922 0.161204 27.6402 0.241204ZM17.2402 1.1212C16.9202 1.1212 16.6002 1.0892 16.2802 1.1212C15.2242 1.2492 14.1362 1.1852 13.1762 1.7612C12.3602 2.2572 11.5442 2.7692 10.7442 3.2812C10.5362 3.4092 10.3282 3.5692 10.2002 3.7772C10.1042 3.9372 10.0722 4.2252 10.1522 4.3692C10.2162 4.4972 10.5042 4.5612 10.6802 4.5612C12.6322 4.5292 14.5842 4.4812 16.5362 4.4172C18.2962 4.3532 18.2962 4.3372 18.5362 2.6092C18.7442 1.0892 18.7442 1.0892 17.2402 1.1212ZM21.4322 4.2572C22.5842 4.1932 23.9602 4.1132 25.3522 4.0492C25.6882 4.0332 25.8802 3.9372 25.8642 3.5532C25.8482 2.5612 25.1282 1.5212 24.1682 1.3932C22.7282 1.2172 21.2722 1.1852 19.8322 1.0892C19.4962 1.0732 19.3042 1.2012 19.2722 1.5692C19.1922 2.3052 19.0962 3.0412 18.9522 3.7772C18.8722 4.2252 19.0962 4.2572 19.4162 4.2572C19.9922 4.2572 20.6002 4.2572 21.4322 4.2572Z" fill="#F7B233"/>
<path d="M8.32842 9.36121C8.32842 10.6412 7.28842 11.6972 6.04042 11.7132C4.79242 11.7132 3.57642 10.5132 3.62442 9.32921C3.67242 8.04921 4.69642 7.04121 5.97642 7.04121C7.35242 7.02521 8.34442 7.98521 8.32842 9.36121ZM7.44842 9.31321C7.43242 8.44921 6.80842 7.87321 5.92842 7.92121C5.16042 7.95321 4.50442 8.64121 4.53642 9.37721C4.56842 10.0972 5.28842 10.8172 5.99242 10.8332C6.76042 10.8332 7.46442 10.1132 7.44842 9.31321Z" fill="#F7B233"/>
<path d="M25.912 9.29715C25.928 10.5931 24.936 11.6651 23.704 11.7131C22.408 11.7451 21.336 10.6891 21.32 9.37715C21.304 7.96915 22.248 7.02515 23.64 7.02515C24.968 7.04115 25.896 7.96915 25.912 9.29715ZM25.016 9.31315C25.016 8.48115 24.456 7.93715 23.592 7.92115C22.744 7.90515 22.2 8.46515 22.2 9.31315C22.2 10.0971 22.824 10.8011 23.544 10.8331C24.312 10.8651 25.032 10.1291 25.016 9.31315Z" fill="#F7B233"/>
</svg>
