<svg width="28" height="22" viewBox="0 0 28 22" fill="none" xmlns="http://www.w3.org/2000/svg">
<path d="M18.7732 17.2571L13.9998 14.1904L9.2265 17.2571L10.6665 11.7638L6.27984 8.19043L11.9465 7.84376L13.9998 2.59043L16.0532 7.84376L21.7198 8.19043L17.3332 11.7638M24.6665 10.8571C24.6665 10.1499 24.9475 9.47158 25.4476 8.97148C25.9477 8.47138 26.6259 8.19043 27.3332 8.19043V2.8571C27.3332 2.14985 27.0522 1.47158 26.5521 0.971478C26.052 0.471381 25.3737 0.19043 24.6665 0.19043H3.33317C2.62593 0.19043 1.94765 0.471381 1.44755 0.971478C0.947455 1.47158 0.666504 2.14985 0.666504 2.8571V8.19043C1.37375 8.19043 2.05203 8.47138 2.55212 8.97148C3.05222 9.47158 3.33317 10.1499 3.33317 10.8571C3.33317 11.5643 3.05222 12.2426 2.55212 12.7427C2.05203 13.2428 1.37375 13.5238 0.666504 13.5238V18.8571C0.666504 19.5643 0.947455 20.2426 1.44755 20.7427C1.94765 21.2428 2.62593 21.5238 3.33317 21.5238H24.6665C25.3737 21.5238 26.052 21.2428 26.5521 20.7427C27.0522 20.2426 27.3332 19.5643 27.3332 18.8571V13.5238C26.6259 13.5238 25.9477 13.2428 25.4476 12.7427C24.9475 12.2426 24.6665 11.5643 24.6665 10.8571Z" fill="#183D69"/>
</svg>
