<svg width="30" height="10" viewBox="0 0 30 10" fill="none" xmlns="http://www.w3.org/2000/svg">
<path d="M14.024 8.48927C12.2 8.48927 10.392 8.48927 8.56804 8.48927C7.86404 8.48927 7.89604 8.47327 7.88004 7.80127C7.86404 7.35327 7.88004 6.88927 7.73604 6.48927C7.36804 5.43327 6.20004 4.88927 4.93604 5.09727C3.84804 5.27327 3.08004 6.13727 3.01604 7.24127C3.01604 7.27327 3.01604 7.30527 3.01604 7.33727C2.98404 7.70527 2.93604 8.07327 2.90404 8.44127C2.34404 8.44127 1.76804 8.44127 1.20804 8.42527C1.12804 8.42527 1.04804 8.34527 1.00004 8.28127C0.456039 7.73727 0.440039 6.21727 0.92004 5.62527C1.04804 5.46527 1.16004 5.28927 1.22404 5.11327C1.52804 4.18527 2.13604 3.72127 3.11204 3.62527C4.40804 3.49727 5.70404 3.30527 7.00004 3.09727C7.33604 3.04927 7.65604 2.85727 7.96004 2.69727C9.09604 2.05727 10.216 1.36927 11.352 0.729268C11.96 0.377268 12.616 0.249268 13.32 0.249268C15.112 0.265268 16.904 0.249269 18.696 0.265269C19.528 0.281269 19.592 0.345269 19.768 1.14527C19.864 1.57727 19.928 2.02527 20.024 2.45727C20.152 3.09727 20.152 3.11327 20.84 3.11327C23.08 3.11327 25.32 3.11327 27.56 3.11327C28.904 3.11327 28.936 3.14527 29 4.50527C29.016 4.98527 29.096 5.41727 29.336 5.86527C29.72 6.58527 29.496 7.32127 29.064 7.97727C28.936 8.16927 28.632 8.28127 28.376 8.31327C27.512 8.40927 26.648 8.44127 25.8 8.48927C25.064 8.52127 25.048 8.50527 25.064 7.76927C25.08 7.14527 25.064 6.52127 24.616 5.99327C23.88 5.11327 22.648 4.82527 21.528 5.28927C20.6 5.67327 20.056 6.63327 20.12 7.75327C20.12 7.84927 20.152 7.92927 20.168 8.00927C20.232 8.34527 20.104 8.50527 19.752 8.48927C19.064 8.47327 18.376 8.48927 17.688 8.48927C16.472 8.48927 15.256 8.48927 14.024 8.48927ZM11.048 3.49727C11.752 3.44927 12.552 3.36927 13.352 3.32127C13.736 3.30527 13.944 3.19327 13.976 2.76127C14.024 2.20127 14.12 1.64127 14.232 1.09727C14.312 0.697268 14.12 0.649269 13.784 0.665269C11.944 0.697269 10.536 1.65727 9.14404 2.68127C9.06404 2.74527 8.98404 2.85727 8.95204 2.96927C8.82404 3.30527 8.98404 3.49727 9.36804 3.49727C9.89604 3.49727 10.424 3.49727 11.048 3.49727ZM14.888 3.32127C15.864 3.25727 16.712 3.19327 17.576 3.12927C18.744 3.04927 18.744 3.04927 18.728 1.88127C18.728 1.73727 18.728 1.57727 18.712 1.43327C18.696 1.01727 18.536 0.761269 18.088 0.745269C17.288 0.713269 16.488 0.681268 15.688 0.633268C15.336 0.617268 15.24 0.809268 15.208 1.12927C15.128 1.80127 15.016 2.47327 14.888 3.32127Z" fill="#F7B233"/>
<path d="M24.5362 7.56126C24.6002 8.72926 23.5122 9.52926 22.6322 9.49726C21.5122 9.46526 20.6482 8.60126 20.6962 7.48126C20.7602 6.34526 21.4802 5.59326 22.6162 5.59326C23.7842 5.59326 24.5522 6.37726 24.5362 7.56126ZM22.6482 8.72926C23.3362 8.71326 23.8322 8.13726 23.8002 7.41726C23.7682 6.74526 23.2722 6.31326 22.5522 6.32926C21.8642 6.34526 21.4322 6.82526 21.4482 7.56126C21.4642 8.21726 22.0082 8.74526 22.6482 8.72926Z" fill="#F7B233"/>
<path d="M7.36817 7.52915C7.44817 8.71315 6.37617 9.51315 5.49617 9.48115C4.39217 9.44915 3.49618 8.63315 3.52818 7.49715C3.56018 6.39315 4.32818 5.59315 5.43218 5.57715C6.60018 5.57715 7.35217 6.32915 7.36817 7.52915ZM6.63218 7.52915C6.64818 6.82515 6.16818 6.32915 5.48018 6.32915C4.77618 6.32915 4.28018 6.77715 4.24818 7.46515C4.21618 8.10515 4.74418 8.71315 5.35218 8.74515C6.02418 8.79315 6.63218 8.21715 6.63218 7.52915Z" fill="#F7B233"/>
</svg>
