<svg width="30" height="10" viewBox="0 0 30 10" fill="none" xmlns="http://www.w3.org/2000/svg">
<path d="M14.232 8.63318C12.648 8.63318 11.08 8.63318 9.49602 8.63318C8.63202 8.63318 8.58402 8.61718 8.64802 7.78518C8.82402 5.51318 6.56802 4.56918 4.88802 5.32118C3.92802 5.75318 3.54402 6.55318 3.52802 7.56118C3.51202 8.60118 3.51202 8.60118 2.50402 8.61718C1.44802 8.63318 1.28802 8.52118 1.06402 7.49718C0.920021 6.80918 0.744021 6.08918 1.48002 5.56118C1.60802 5.46518 1.64002 5.24118 1.68802 5.08118C1.94402 4.26518 2.48802 3.76918 3.32002 3.62518C4.36002 3.46518 5.38402 3.27318 6.44002 3.17718C7.44802 3.09718 8.36002 2.87318 9.20802 2.28118C10.008 1.70518 10.904 1.27318 11.752 0.761177C12.568 0.265177 13.464 0.0411775 14.408 0.0251775C16.104 0.00917752 17.816 0.0251775 19.512 0.0251775C20.296 0.0251775 21.032 0.233177 21.704 0.681177C22.312 1.11318 23 1.43318 23.544 1.94518C24.216 2.56918 24.984 2.71318 25.816 2.79318C26.392 2.84118 26.984 2.92118 27.56 3.00118C28.2 3.11318 28.392 3.30518 28.456 3.97718C28.52 4.71318 28.568 5.41718 28.92 6.12118C29.224 6.72918 28.968 7.46518 28.6 8.05718C28.504 8.21718 28.264 8.36118 28.072 8.37718C27.208 8.47318 26.344 8.48918 25.48 8.56918C25 8.61718 24.872 8.39318 24.92 7.96118C24.936 7.83318 24.92 7.72118 24.936 7.59318C24.984 6.20118 24.072 5.09718 22.36 5.04918C20.904 5.01718 19.832 6.07318 19.768 7.52918C19.752 7.72118 19.752 7.91318 19.8 8.08918C19.944 8.55318 19.688 8.61718 19.32 8.61718C17.624 8.63318 15.928 8.63318 14.232 8.63318ZM12.488 3.54518C13.224 3.54518 13.976 3.52918 14.712 3.54518C15.128 3.56118 15.368 3.40118 15.416 3.00118C15.496 2.39318 15.56 1.76918 15.64 1.16118C15.704 0.729177 15.528 0.585177 15.08 0.553177C13 0.393177 11.416 1.46518 9.88002 2.64918C9.73602 2.76118 9.68802 3.09718 9.73602 3.30518C9.75202 3.41718 10.072 3.52918 10.248 3.52918C11 3.56118 11.736 3.54518 12.488 3.54518ZM18.328 3.54518C18.792 3.54518 19.256 3.51318 19.72 3.54518C20.168 3.57718 20.344 3.35318 20.392 2.96918C20.456 2.50518 20.52 2.05718 20.6 1.59318C20.696 0.953177 20.648 0.793177 19.992 0.713177C19.048 0.585177 18.088 0.585177 17.128 0.569177C17 0.569177 16.792 0.825178 16.76 0.985178C16.616 1.65718 16.536 2.32918 16.424 3.00118C16.36 3.41718 16.552 3.56118 16.936 3.54518C17.4 3.52918 17.864 3.54518 18.328 3.54518ZM21.32 1.52918C21.256 1.56118 21.192 1.59318 21.128 1.62518C21.064 2.00918 20.984 2.39318 20.92 2.79318C20.808 3.48118 21.128 3.75318 21.8 3.52918C22.264 3.38518 22.392 3.03318 22.12 2.61718C21.864 2.23318 21.576 1.88118 21.32 1.52918Z" fill="#F7B233"/>
<path d="M24.4079 7.60926C24.4239 8.76126 23.5279 9.68926 22.3759 9.68926C21.2879 9.68926 20.3279 8.77726 20.3439 7.67326C20.3599 6.40926 21.3039 5.60926 22.3919 5.59326C23.4959 5.59326 24.3759 6.48926 24.4079 7.60926ZM23.6399 7.65726C23.6399 6.96926 23.0159 6.34526 22.3439 6.37726C21.7039 6.39326 21.1279 6.98526 21.1119 7.64126C21.1119 8.28126 21.6879 8.90526 22.3119 8.92126C22.9999 8.95326 23.6239 8.34526 23.6399 7.65726Z" fill="#F7B233"/>
<path d="M8.08807 7.64126C8.18407 8.90526 6.95207 9.68926 6.15207 9.68926C5.04807 9.68926 4.04007 8.71326 4.08807 7.64126C4.15207 6.47326 4.98407 5.59326 6.13607 5.59326C7.20807 5.60926 8.07207 6.50526 8.08807 7.64126ZM7.30407 7.62526C7.28807 6.90526 6.77607 6.37726 6.08807 6.37726C5.36807 6.37726 4.82407 6.96926 4.85607 7.72126C4.88807 8.37726 5.49607 8.96926 6.13607 8.93726C6.80807 8.88926 7.32007 8.32926 7.30407 7.62526Z" fill="#F7B233"/>
</svg>
