<svg width="21" height="20" viewBox="0 0 21 20" fill="none" xmlns="http://www.w3.org/2000/svg">
<path d="M18.1295 0.600098H15.7295V3.0001C15.7295 3.42363 15.3766 3.77657 14.953 3.77657C14.5295 3.77657 14.1766 3.42363 14.1766 3.0001V0.600098H7.78833V3.0001C7.78833 3.42363 7.43539 3.77657 7.01186 3.77657C6.58833 3.77657 6.23539 3.42363 6.23539 3.0001V0.600098H3.83539C2.24715 0.600098 0.976562 1.87069 0.976562 3.45892V17.0472C0.976562 18.6354 2.24715 19.906 3.83539 19.906H18.1295C19.7177 19.906 20.9883 18.6354 20.9883 17.0472V3.45892C20.9883 1.90598 19.7177 0.600098 18.1295 0.600098Z" fill="#F7B233"/>
</svg>
