<svg width="18" height="18" viewBox="0 0 18 18" fill="none" xmlns="http://www.w3.org/2000/svg">
<path fill-rule="evenodd" clip-rule="evenodd" d="M9 18C10.1819 18 11.3522 17.7672 12.4442 17.3149C13.5361 16.8626 14.5282 16.1997 15.364 15.364C16.1997 14.5282 16.8626 13.5361 17.3149 12.4442C17.7672 11.3522 18 10.1819 18 9C18 7.8181 17.7672 6.64778 17.3149 5.55585C16.8626 4.46392 16.1997 3.47177 15.364 2.63604C14.5282 1.80031 13.5361 1.13738 12.4442 0.685084C11.3522 0.232792 10.1819 -1.76116e-08 9 0C6.61305 3.55683e-08 4.32387 0.948211 2.63604 2.63604C0.948212 4.32387 0 6.61305 0 9C0 11.3869 0.948212 13.6761 2.63604 15.364C4.32387 17.0518 6.61305 18 9 18ZM10 3.5C10 3.23478 9.89464 2.98043 9.70711 2.79289C9.51957 2.60536 9.26522 2.5 9 2.5C8.73478 2.5 8.48043 2.60536 8.29289 2.79289C8.10536 2.98043 8 3.23478 8 3.5V8.75C8 9.44 8.56 10 9.25 10H12.5C12.7652 10 13.0196 9.89464 13.2071 9.70711C13.3946 9.51957 13.5 9.26522 13.5 9C13.5 8.73478 13.3946 8.48043 13.2071 8.29289C13.0196 8.10536 12.7652 8 12.5 8H10V3.5Z" fill="#F7B233"/>
</svg>
