<svg width="30" height="11" viewBox="0 0 30 11" fill="none" xmlns="http://www.w3.org/2000/svg">
<path d="M19.3842 0.993181C21.0482 0.993181 22.6962 1.00918 24.3602 0.993181C25.3682 0.977181 26.1842 1.29718 26.8242 2.09718C27.2882 2.68918 27.8322 3.23318 28.2002 3.87318C28.4722 4.33718 28.5522 4.91318 28.6482 5.45718C28.7282 5.93718 28.7122 6.41718 29.0002 6.88118C29.3682 7.45718 29.1602 8.68918 28.6962 9.16918C28.6002 9.28118 28.4402 9.39318 28.3122 9.40918C27.3842 9.48918 26.4402 9.55318 25.5122 9.61718C25.1282 9.64918 25.0642 9.42518 25.0482 9.08918C25.0162 8.54518 25.0162 7.93718 24.8082 7.45718C24.3602 6.38518 23.0802 5.85718 21.8962 6.12918C20.6162 6.43318 19.8482 7.36118 19.8322 8.67318C19.8322 8.97718 19.9282 9.44118 19.8002 9.53718C19.5442 9.69718 19.1442 9.64918 18.8082 9.64918C15.6242 9.64918 12.4242 9.64918 9.24024 9.64918C8.52024 9.64918 8.50424 9.64918 8.58424 8.96118C8.69624 7.92118 8.40824 7.00918 7.48024 6.46518C6.48824 5.87318 5.43224 5.88918 4.45624 6.51318C3.60824 7.05718 3.35224 7.90518 3.41624 8.86518C3.46424 9.63318 3.46424 9.63318 2.68024 9.64918C2.58424 9.64918 2.48824 9.64918 2.39224 9.64918C1.28824 9.66518 1.12824 9.55318 0.904242 8.44918C0.760242 7.77718 0.648242 7.08918 1.32024 6.56118C1.44824 6.46518 1.49624 6.24118 1.54424 6.06518C1.81624 5.20118 2.40824 4.70518 3.28824 4.57718C4.32824 4.41718 5.38424 4.24118 6.44024 4.14518C7.38424 4.04918 8.26424 3.87318 9.06424 3.29718C9.88024 2.72118 10.7762 2.25718 11.6242 1.74518C12.5042 1.21718 13.4482 0.961182 14.4722 0.961182C14.5682 0.961182 14.6642 0.961182 14.7602 0.961182C16.2962 0.961182 17.8162 0.961182 19.3522 0.961182C19.3842 0.977182 19.3842 0.993181 19.3842 0.993181ZM19.0162 4.52918C19.7682 4.52918 20.5202 4.52918 21.2722 4.52918C21.5442 4.52918 21.6882 4.41718 21.6242 4.12918C21.4482 3.40918 21.2562 2.67318 21.0802 1.95318C21.0002 1.61718 20.7602 1.52118 20.4562 1.52118C19.4322 1.52118 18.3922 1.53718 17.3682 1.52118C16.9842 1.52118 16.8082 1.68118 16.7602 2.04918C16.6642 2.73718 16.5522 3.40918 16.4562 4.08118C16.4082 4.38518 16.5522 4.54518 16.8722 4.54518C17.5762 4.52918 18.2962 4.52918 19.0162 4.52918ZM15.7362 1.53718C15.3682 1.53718 15.1282 1.55318 14.8722 1.53718C12.8722 1.36118 11.4002 2.49718 9.89624 3.58518C9.73624 3.69718 9.70424 4.08118 9.72024 4.32118C9.72024 4.40118 10.0562 4.52918 10.2482 4.52918C11.7522 4.54518 13.2402 4.52918 14.7442 4.54518C15.1762 4.54518 15.3842 4.35318 15.4322 3.96918C15.5442 3.20118 15.6242 2.41718 15.7362 1.53718ZM24.3602 4.59318C24.3602 4.57718 24.3602 4.54518 24.3602 4.52918C24.8242 4.52918 25.3042 4.56118 25.7682 4.52918C26.4402 4.48118 26.6322 4.11318 26.2962 3.53718C26.0882 3.18518 25.8642 2.84918 25.6402 2.51318C25.2562 1.90518 24.6962 1.61718 24.0082 1.56918C23.7202 1.55318 23.4482 1.55318 23.1602 1.55318C21.8322 1.53718 21.8162 1.53718 22.1522 2.81718C22.2962 3.36118 22.2962 4.09718 22.6642 4.36918C23.0482 4.65718 23.7842 4.52918 24.3602 4.59318Z" fill="#F7B233"/>
<path d="M24.5044 8.67309C24.5044 9.82509 23.5604 10.7531 22.4244 10.7371C21.3524 10.7211 20.4084 9.79309 20.3924 8.70509C20.3604 7.60109 21.3204 6.62509 22.4564 6.60909C23.5924 6.59309 24.5044 7.52109 24.5044 8.67309ZM22.4244 9.95309C23.0644 9.98509 23.6884 9.40909 23.7364 8.75309C23.7844 8.06509 23.1924 7.40909 22.5044 7.37709C21.8324 7.34509 21.1764 7.98509 21.1924 8.67309C21.1924 9.32909 21.7684 9.93709 22.4244 9.95309Z" fill="#F7B233"/>
<path d="M6.00802 6.60913C7.12802 6.60913 8.10402 7.58513 8.08802 8.70513C8.07202 9.77713 7.11202 10.7211 6.04002 10.7371C4.92002 10.7531 4.00802 9.80913 4.00802 8.62513C3.99202 7.50513 4.88802 6.60913 6.00802 6.60913ZM7.24002 8.67313C7.24002 7.96913 6.71202 7.39313 6.02402 7.37713C5.30402 7.36113 4.74402 7.96913 4.76002 8.72113C4.77602 9.39313 5.38402 9.98513 6.02402 9.96913C6.72802 9.93713 7.24002 9.39313 7.24002 8.67313Z" fill="#F7B233"/>
</svg>
