<svg width="28" height="28" viewBox="0 0 28 28" fill="none" xmlns="http://www.w3.org/2000/svg">
<path d="M13.9998 0.523926C21.3638 0.523926 27.3332 6.49326 27.3332 13.8573C27.3332 21.2213 21.3638 27.1906 13.9998 27.1906C6.63584 27.1906 0.666504 21.2213 0.666504 13.8573C0.666504 6.49326 6.63584 0.523926 13.9998 0.523926ZM13.9998 4.52393C12.1792 4.52378 10.3983 5.05611 8.87643 6.05537C7.35454 7.05463 6.15814 8.47718 5.43455 10.1478C4.71097 11.8185 4.4918 13.6643 4.80403 15.4579C5.11627 17.2516 5.94627 18.9147 7.19184 20.2426L7.39984 20.4559L9.28517 18.5706C8.24679 17.533 7.57992 16.1816 7.38804 14.7262C7.19616 13.2709 7.49 11.7929 8.22397 10.5216C8.95794 9.25027 10.091 8.25676 11.4473 7.69522C12.8036 7.13368 14.3074 7.0355 15.7252 7.41593L17.8105 5.33593C16.6116 4.80019 15.313 4.5235 13.9998 4.52393ZM22.5225 10.0479L20.4412 12.1306C20.7426 13.2612 20.7418 14.4512 20.4388 15.5814C20.1357 16.7116 19.5411 17.7424 18.7145 18.5706L20.5998 20.4573C21.4677 19.5914 22.1559 18.5626 22.625 17.43C23.094 16.2973 23.3347 15.0832 23.3332 13.8573C23.3338 12.5446 23.0576 11.2466 22.5225 10.0479ZM19.6558 6.31459L14.6892 11.2813C14.2942 11.1764 13.8804 11.1636 13.4796 11.2438C13.0789 11.324 12.7019 11.4951 12.3777 11.744C12.0535 11.9928 11.7907 12.3128 11.6096 12.6791C11.4286 13.0455 11.334 13.4486 11.3332 13.8573C11.3332 14.2368 11.4142 14.612 11.5708 14.9577C11.7274 15.3035 11.956 15.6118 12.2414 15.8621C12.5267 16.1124 12.8622 16.2989 13.2254 16.4091C13.5886 16.5193 13.9712 16.5508 14.3475 16.5013C14.7238 16.4518 15.0852 16.3226 15.4076 16.1222C15.7299 15.9218 16.0058 15.6549 16.2168 15.3394C16.4277 15.0238 16.5689 14.6669 16.6308 14.2924C16.6927 13.918 16.674 13.5346 16.5758 13.1679L21.5425 8.19993L19.6558 6.31459Z" fill="#183D69"/>
</svg>
