<svg width="20" height="12" viewBox="0 0 20 12" fill="none" xmlns="http://www.w3.org/2000/svg">
<path d="M16.5987 3.55123H4.72821V3.29187C4.72821 1.47635 6.04493 0 7.54121 0H19.5114C19.5314 1.95517 18.3543 3.55123 16.5987 3.55123Z" fill="#183D69"/>
<path d="M16.1398 4.22949C16.1398 6.66348 14.6635 9.43663 11.9902 9.43663H9.71581C9.65596 8.27949 8.69835 7.38171 7.52128 7.38171C6.34421 7.38171 5.38659 8.29944 5.32674 9.45658H0C0 6.84304 1.61598 4.22949 4.56863 4.22949H16.1398Z" fill="#183D69"/>
<path d="M7.54118 11.1126C8.38959 11.1126 9.07736 10.4248 9.07736 9.57637C9.07736 8.72794 8.38959 8.04016 7.54118 8.04016C6.69277 8.04016 6.005 8.72794 6.005 9.57637C6.005 10.4248 6.69277 11.1126 7.54118 11.1126Z" fill="#183D69"/>
</svg>
