<svg width="24" height="24" viewBox="0 0 24 24" fill="none" xmlns="http://www.w3.org/2000/svg">
<path d="M10.1 5.37428C10.232 4.97464 10.4867 4.6268 10.8278 4.38025C11.1689 4.13369 11.5791 4.00098 12 4.00098C12.4209 4.00098 12.831 4.13369 13.1722 4.38025C13.5133 4.6268 13.768 4.97464 13.9 5.37428C14.8172 5.75108 15.6016 6.39206 16.1536 7.21578C16.7056 8.03949 17.0002 9.00872 17 10.0003V14.0003L19.146 16.1463C19.216 16.2162 19.2638 16.3052 19.2832 16.4022C19.3026 16.4993 19.2928 16.5998 19.255 16.6913C19.2172 16.7827 19.1531 16.8609 19.0709 16.9159C18.9886 16.9709 18.8919 17.0003 18.793 17.0003H5.20699C5.10805 17.0003 5.01135 16.9709 4.92911 16.9159C4.84687 16.8609 4.7828 16.7827 4.74501 16.6913C4.70722 16.5998 4.6974 16.4993 4.7168 16.4022C4.7362 16.3052 4.78394 16.2162 4.85399 16.1463L6.99999 14.0003V10.0003C6.99977 9.00872 7.29439 8.03949 7.84638 7.21578C8.39837 6.39206 9.18281 5.75108 10.1 5.37428ZM9.99999 18.0003C9.99999 18.5307 10.2107 19.0394 10.5858 19.4145C10.9608 19.7896 11.4696 20.0003 12 20.0003C12.5304 20.0003 13.0391 19.7896 13.4142 19.4145C13.7893 19.0394 14 18.5307 14 18.0003H9.99999Z" fill="#183D69"/>
</svg>
