<svg width="21" height="22" viewBox="0 0 21 22" fill="none" xmlns="http://www.w3.org/2000/svg">
<path d="M18.1294 2.6001H15.7294V5.0001C15.7294 5.42363 15.3764 5.77657 14.9529 5.77657C14.5294 5.77657 14.1764 5.42363 14.1764 5.0001V2.6001H7.7882V5.0001C7.7882 5.42363 7.43526 5.77657 7.01173 5.77657C6.5882 5.77657 6.23526 5.42363 6.23526 5.0001V2.6001H3.83526C2.24703 2.6001 0.97644 3.87069 0.97644 5.45892V19.0472C0.97644 20.6354 2.24703 21.906 3.83526 21.906H18.1294C19.7176 21.906 20.9882 20.6354 20.9882 19.0472V5.45892C20.9882 3.90598 19.7176 2.6001 18.1294 2.6001Z" fill="#F7B233"/>
<path d="M15.7647 0.905865C15.7647 0.482336 15.4117 0.129395 14.9882 0.129395C14.5647 0.129395 14.2117 0.482336 14.2117 0.905865V2.59998H15.8V0.905865H15.7647Z" fill="#F7B233"/>
<path d="M7.78823 0.905865C7.78823 0.482336 7.43529 0.129395 7.01176 0.129395C6.58823 0.129395 6.23529 0.482336 6.23529 0.905865V2.59998H7.78823V0.905865Z" fill="#F7B233"/>
</svg>
