<svg width="24" height="24" viewBox="0 0 24 24" fill="none" xmlns="http://www.w3.org/2000/svg">
<path d="M17.3 3.2998H15.2V5.3998C15.2 5.7998 14.9 6.0998 14.5 6.0998C14.1 6.0998 13.8 5.7998 13.8 5.3998V3.2998H8.1V5.3998C8.1 5.7998 7.8 6.0998 7.4 6.0998C7 6.0998 6.7 5.8998 6.7 5.4998V3.2998H4.5C3.1 3.2998 2 4.4998 2 5.8998V17.9998C2 19.3998 3.1 20.5998 4.6 20.5998H17.4C18.8 20.5998 20 19.4998 20 17.9998V5.8998C19.9 4.4998 18.7 3.2998 17.3 3.2998Z" fill="#183D69"/>
<path d="M15.2 1.8001C15.2 1.4001 14.9 1.1001 14.5 1.1001C14.1 1.1001 13.8 1.4001 13.8 1.8001V3.3001H15.2V1.8001Z" fill="#183D69"/>
<path d="M8.09995 1.8001C8.09995 1.4001 7.79995 1.1001 7.39995 1.1001C6.99995 1.1001 6.69995 1.4001 6.69995 1.8001V3.3001H8.09995V1.8001Z" fill="#183D69"/>
<path fill-rule="evenodd" clip-rule="evenodd" d="M16.8 22.5999C17.5 22.5999 18.3 22.4999 19 22.1999C19.7 21.8999 20.3 21.4999 20.8 20.9999C21.3 20.4999 21.7 19.7999 22 19.1999C22.3 18.4999 22.4 17.7999 22.4 16.9999C22.4 16.1999 22.3 15.4999 22 14.7999C21.7 14.0999 21.3 13.4999 20.8 12.9999C20.3 12.4999 19.6 12.0999 19 11.7999C18.3 11.4999 17.6 11.3999 16.8 11.3999C15.3 11.3999 13.8 11.9999 12.8 13.0999C11.7 14.1999 11.1 15.5999 11.1 17.0999C11.1 18.5999 11.7 20.0999 12.8 21.0999C13.8 21.9999 15.3 22.5999 16.8 22.5999ZM16.6 19.1999L19.8 15.3999L18.8 14.5999L16.1 17.8999L14.7 16.4999L13.8 17.3999L15.7 19.2999L16.2 19.7999L16.6 19.1999Z" fill="#F7B233"/>
</svg>
