<svg width="21" height="20" viewBox="0 0 21 20" fill="none" xmlns="http://www.w3.org/2000/svg">
<path d="M17.6294 0.599976H15.2294V2.99998C15.2294 3.42351 14.8764 3.77645 14.4529 3.77645C14.0294 3.77645 13.6764 3.42351 13.6764 2.99998V0.599976H7.2882V2.99998C7.2882 3.42351 6.93526 3.77645 6.51173 3.77645C6.0882 3.77645 5.73526 3.42351 5.73526 2.99998V0.599976H3.33526C1.74703 0.599976 0.47644 1.87056 0.47644 3.4588V17.047C0.47644 18.6353 1.74703 19.9059 3.33526 19.9059H17.6294C19.2176 19.9059 20.4882 18.6353 20.4882 17.047V3.4588C20.4882 1.90586 19.2176 0.599976 17.6294 0.599976Z" fill="#183D69"/>
</svg>
