<svg width="21" height="20" viewBox="0 0 21 20" fill="none" xmlns="http://www.w3.org/2000/svg">
<path d="M19.022 11.155L17.654 7.05098C17.4556 6.45346 17.0738 5.93368 16.5631 5.56548C16.0524 5.19729 15.4386 4.99942 14.809 4.99998H5.691C5.06139 4.99942 4.44761 5.19729 3.93688 5.56548C3.42615 5.93368 3.04445 6.45346 2.846 7.05098L1.478 11.155C1.11422 11.3072 0.80356 11.5635 0.585067 11.8918C0.366573 12.2201 0.25 12.6056 0.25 13V16C0.25 16.738 0.654 17.376 1.25 17.723V19C1.25 19.2652 1.35536 19.5195 1.54289 19.7071C1.73043 19.8946 1.98478 20 2.25 20H3.25C3.51522 20 3.76957 19.8946 3.95711 19.7071C4.14464 19.5195 4.25 19.2652 4.25 19V18H16.25V19C16.25 19.2652 16.3554 19.5195 16.5429 19.7071C16.7304 19.8946 16.9848 20 17.25 20H18.25C18.5152 20 18.7696 19.8946 18.9571 19.7071C19.1446 19.5195 19.25 19.2652 19.25 19V17.723C19.5534 17.549 19.8056 17.2981 19.9811 16.9956C20.1567 16.6931 20.2494 16.3497 20.25 16V13C20.25 12.169 19.743 11.458 19.022 11.155ZM5.691 6.99998H14.808C15.018 6.99993 15.2226 7.06597 15.393 7.18873C15.5633 7.3115 15.6907 7.48477 15.757 7.68398L16.863 11H3.637L4.742 7.68398C4.879 7.27498 5.261 6.99998 5.691 6.99998ZM3.75 16C3.55295 15.9999 3.35785 15.961 3.17582 15.8856C2.9938 15.8101 2.82842 15.6995 2.68913 15.5601C2.40783 15.2786 2.24987 14.8969 2.25 14.499C2.25013 14.101 2.40835 13.7194 2.68984 13.4381C2.97133 13.1568 3.35304 12.9988 3.751 12.999C4.14896 12.9991 4.53056 13.1573 4.81187 13.4388C5.09317 13.7203 5.25113 14.102 5.251 14.5C5.25087 14.8979 5.09265 15.2795 4.81116 15.5608C4.52967 15.8421 4.14796 16.0001 3.75 16ZM16.75 16C16.352 15.9998 15.9704 15.8416 15.6891 15.5601C15.4078 15.2786 15.2499 14.8969 15.25 14.499C15.2501 14.101 15.4083 13.7194 15.6898 13.4381C15.9713 13.1568 16.353 12.9988 16.751 12.999C17.149 12.9991 17.5306 13.1573 17.8119 13.4388C18.0932 13.7203 18.2511 14.102 18.251 14.5C18.2509 14.8979 18.0927 15.2795 17.8112 15.5608C17.5297 15.8421 17.148 16.0001 16.75 16ZM7.25 2.37798C7.255 1.28998 6.213 0.326976 5.863 0.0339758C5.83118 0.00692073 5.79077 -0.00793457 5.749 -0.00793457C5.70723 -0.00793457 5.66682 0.00692073 5.635 0.0339758C5.283 0.324976 4.245 1.27098 4.25 2.37698C4.25 3.27198 4.923 3.99998 5.75 3.99998C6.577 3.99998 7.25 3.27198 7.25 2.37798ZM11.75 2.37798C11.755 1.28998 10.713 0.325976 10.363 0.0339758C10.3312 0.00692073 10.2908 -0.00793457 10.249 -0.00793457C10.2072 -0.00793457 10.1668 0.00692073 10.135 0.0339758C9.782 0.324976 8.744 1.27198 8.749 2.37798C8.75 3.27198 9.423 3.99998 10.25 3.99998C11.077 3.99998 11.75 3.27198 11.75 2.37798ZM16.25 2.37798C16.255 1.28998 15.213 0.325976 14.863 0.0339758C14.8312 0.00692073 14.7908 -0.00793457 14.749 -0.00793457C14.7072 -0.00793457 14.6668 0.00692073 14.635 0.0339758C14.283 0.324976 13.245 1.27098 13.25 2.37698C13.25 3.27198 13.923 3.99998 14.75 3.99998C15.577 3.99998 16.25 3.27198 16.25 2.37798Z" fill="#183D69"/>
</svg>
