<svg width="24" height="24" viewBox="0 0 24 24" fill="none" xmlns="http://www.w3.org/2000/svg">
<path d="M20.772 13.1551L19.404 9.0511C19.2056 8.45358 18.8238 7.9338 18.3131 7.56561C17.8024 7.19741 17.1886 6.99954 16.559 7.0001H7.441C6.81139 6.99954 6.19761 7.19741 5.68688 7.56561C5.17615 7.9338 4.79445 8.45358 4.596 9.0511L3.228 13.1551C2.86422 13.3073 2.55356 13.5637 2.33507 13.8919C2.11657 14.2202 2 14.6058 2 15.0001V18.0001C2 18.7381 2.404 19.3761 3 19.7231V21.0001C3 21.2653 3.10536 21.5197 3.29289 21.7072C3.48043 21.8947 3.73478 22.0001 4 22.0001H5C5.26522 22.0001 5.51957 21.8947 5.70711 21.7072C5.89464 21.5197 6 21.2653 6 21.0001V20.0001H18V21.0001C18 21.2653 18.1054 21.5197 18.2929 21.7072C18.4804 21.8947 18.7348 22.0001 19 22.0001H20C20.2652 22.0001 20.5196 21.8947 20.7071 21.7072C20.8946 21.5197 21 21.2653 21 21.0001V19.7231C21.3034 19.5491 21.5556 19.2982 21.7311 18.9957C21.9067 18.6933 21.9994 18.3498 22 18.0001V15.0001C22 14.1691 21.493 13.4581 20.772 13.1551ZM7.441 9.0001H16.558C16.768 9.00005 16.9726 9.06609 17.143 9.18886C17.3133 9.31162 17.4407 9.48489 17.507 9.6841L18.613 13.0001H5.387L6.492 9.6841C6.629 9.2751 7.011 9.0001 7.441 9.0001ZM5.5 18.0001C5.30295 18 5.10785 17.9612 4.92582 17.8857C4.7438 17.8102 4.57842 17.6996 4.43913 17.5603C4.15783 17.2788 3.99987 16.8971 4 16.4991C4.00013 16.1011 4.15835 15.7195 4.43984 15.4382C4.72133 15.1569 5.10304 14.999 5.501 14.9991C5.89896 14.9992 6.28056 15.1574 6.56187 15.4389C6.84317 15.7204 7.00113 16.1021 7.001 16.5001C7.00087 16.8981 6.84265 17.2797 6.56116 17.561C6.27967 17.8423 5.89796 18.0002 5.5 18.0001ZM18.5 18.0001C18.102 18 17.7204 17.8418 17.4391 17.5603C17.1578 17.2788 16.9999 16.8971 17 16.4991C17.0001 16.1011 17.1583 15.7195 17.4398 15.4382C17.7213 15.1569 18.103 14.999 18.501 14.9991C18.899 14.9992 19.2806 15.1574 19.5619 15.4389C19.8432 15.7204 20.0011 16.1021 20.001 16.5001C20.0009 16.8981 19.8427 17.2797 19.5612 17.561C19.2797 17.8423 18.898 18.0002 18.5 18.0001ZM9 4.3781C9.005 3.2901 7.963 2.3271 7.613 2.0341C7.58118 2.00704 7.54077 1.99219 7.499 1.99219C7.45723 1.99219 7.41682 2.00704 7.385 2.0341C7.033 2.3251 5.995 3.2711 6 4.3771C6 5.2721 6.673 6.0001 7.5 6.0001C8.327 6.0001 9 5.2721 9 4.3781ZM13.5 4.3781C13.505 3.2901 12.463 2.3261 12.113 2.0341C12.0812 2.00704 12.0408 1.99219 11.999 1.99219C11.9572 1.99219 11.9168 2.00704 11.885 2.0341C11.532 2.3251 10.494 3.2721 10.499 4.3781C10.5 5.2721 11.173 6.0001 12 6.0001C12.827 6.0001 13.5 5.2721 13.5 4.3781ZM18 4.3781C18.005 3.2901 16.963 2.3261 16.613 2.0341C16.5812 2.00704 16.5408 1.99219 16.499 1.99219C16.4572 1.99219 16.4168 2.00704 16.385 2.0341C16.033 2.3251 14.995 3.2711 15 4.3771C15 5.2721 15.673 6.0001 16.5 6.0001C17.327 6.0001 18 5.2721 18 4.3781Z" fill="#F7B233"/>
</svg>
