<svg width="20" height="20" viewBox="0 0 20 20" fill="none" xmlns="http://www.w3.org/2000/svg">
<path d="M18.725 3.27586H14.035V2.38586C14.0313 1.75568 13.7799 1.15224 13.335 0.705863C13.1134 0.483488 12.85 0.307154 12.5599 0.187016C12.2699 0.0668789 11.9589 0.00531256 11.645 0.00586303H8.385C8.07106 0.00531256 7.76011 0.0668789 7.47007 0.187016C7.18002 0.307154 6.91661 0.483488 6.695 0.705863C6.25381 1.15386 6.00605 1.7571 6.005 2.38586V3.27586H1.315C1.11609 3.27586 0.925325 3.35488 0.784672 3.49553C0.64402 3.63618 0.565002 3.82695 0.565002 4.02586C0.565002 4.22478 0.64402 4.41554 0.784672 4.55619C0.925325 4.69685 1.11609 4.77586 1.315 4.77586H2.735V16.5359C2.73092 16.9916 2.8172 17.4437 2.98884 17.8659C3.16048 18.2882 3.41408 18.6722 3.735 18.9959C4.38933 19.637 5.26894 19.996 6.185 19.9959H13.805C14.7211 19.996 15.6007 19.637 16.255 18.9959C16.5759 18.6722 16.8295 18.2882 17.0012 17.8659C17.1728 17.4437 17.2591 16.9916 17.255 16.5359V4.77586H18.685C18.8839 4.77586 19.0747 4.69685 19.2153 4.55619C19.356 4.41554 19.435 4.22478 19.435 4.02586C19.435 3.82695 19.356 3.63618 19.2153 3.49553C19.0747 3.35488 18.8839 3.27586 18.685 3.27586H18.725ZM7.525 2.38586C7.52504 2.27044 7.54806 2.15618 7.59269 2.04973C7.63733 1.94329 7.7027 1.84679 7.785 1.76586C7.95032 1.60236 8.17251 1.50919 8.405 1.50586H11.665C11.782 1.50513 11.898 1.52775 12.0062 1.5724C12.1144 1.61704 12.2126 1.68281 12.295 1.76586C12.4585 1.93118 12.5517 2.15337 12.555 2.38586V3.27586H7.555L7.525 2.38586ZM8.855 14.9959C8.855 15.2611 8.74965 15.5154 8.56211 15.703C8.37457 15.8905 8.12022 15.9959 7.855 15.9959C7.58979 15.9959 7.33543 15.8905 7.1479 15.703C6.96036 15.5154 6.855 15.2611 6.855 14.9959V9.56586C6.855 9.30065 6.96036 9.04629 7.1479 8.85876C7.33543 8.67122 7.58979 8.56586 7.855 8.56586C8.12022 8.56586 8.37457 8.67122 8.56211 8.85876C8.74965 9.04629 8.855 9.30065 8.855 9.56586V14.9959ZM13.215 14.9959C13.215 15.2611 13.1096 15.5154 12.9221 15.703C12.7346 15.8905 12.4802 15.9959 12.215 15.9959C11.9498 15.9959 11.6954 15.8905 11.5079 15.703C11.3204 15.5154 11.215 15.2611 11.215 14.9959V9.56586C11.215 9.30065 11.3204 9.04629 11.5079 8.85876C11.6954 8.67122 11.9498 8.56586 12.215 8.56586C12.4802 8.56586 12.7346 8.67122 12.9221 8.85876C13.1096 9.04629 13.215 9.30065 13.215 9.56586V14.9959Z" fill="white"/>
</svg>
