<svg width="24" height="25" viewBox="0 0 24 25" fill="none" xmlns="http://www.w3.org/2000/svg">
<path d="M16.477 3.504C16.644 3.519 16.717 3.723 16.597 3.842L8.277 12.162C8.18301 12.256 8.11571 12.3734 8.082 12.502L7.082 16.332C7.04899 16.4586 7.04965 16.5916 7.08393 16.7178C7.1182 16.844 7.1849 16.9591 7.27739 17.0516C7.36988 17.1441 7.48496 17.2108 7.61119 17.2451C7.73742 17.2793 7.87043 17.28 7.997 17.247L11.826 16.247C11.9547 16.213 12.0721 16.1454 12.166 16.051L20.604 7.613C20.6304 7.5859 20.664 7.56693 20.7009 7.55833C20.7377 7.54974 20.7762 7.55188 20.8119 7.56451C20.8476 7.57713 20.8789 7.59971 20.9021 7.62957C20.9253 7.65943 20.9395 7.69533 20.943 7.733C21.2942 11.0826 21.2741 14.4608 20.883 17.806C20.66 19.711 19.129 21.206 17.231 21.419C13.7546 21.8041 10.2464 21.8041 6.77 21.419C4.871 21.206 3.34 19.711 3.117 17.806C2.70498 14.281 2.70498 10.72 3.117 7.195C3.34 5.289 4.871 3.794 6.77 3.582C9.99451 3.22457 13.2472 3.19844 16.477 3.504Z" fill="#F7B233"/>
<path d="M17.823 4.73702C17.8462 4.71374 17.8738 4.69527 17.9042 4.68266C17.9346 4.67006 17.9671 4.66357 18 4.66357C18.0329 4.66357 18.0654 4.67006 18.0958 4.68266C18.1262 4.69527 18.1538 4.71374 18.177 4.73702L19.591 6.15202C19.6377 6.19888 19.6639 6.26235 19.6639 6.32852C19.6639 6.39469 19.6377 6.45816 19.591 6.50502L11.298 14.8C11.2665 14.8315 11.2271 14.8539 11.184 14.865L9.27 15.365C9.22781 15.376 9.18348 15.3758 9.1414 15.3644C9.09932 15.353 9.06096 15.3307 9.03013 15.2999C8.9993 15.2691 8.97707 15.2307 8.96565 15.1886C8.95422 15.1465 8.954 15.1022 8.965 15.06L9.465 13.146C9.47613 13.1029 9.49857 13.0636 9.53 13.032L17.823 4.73702Z" fill="#F7B233"/>
</svg>
