<svg width="16" height="18" viewBox="0 0 16 18" fill="none" xmlns="http://www.w3.org/2000/svg">
<path d="M10 9V16.88C10.04 17.18 9.94001 17.5 9.71001 17.71C9.61749 17.8027 9.50761 17.8762 9.38663 17.9264C9.26566 17.9766 9.13598 18.0024 9.00501 18.0024C8.87404 18.0024 8.74436 17.9766 8.62338 17.9264C8.50241 17.8762 8.39252 17.8027 8.30001 17.71L6.29001 15.7C6.18101 15.5933 6.09812 15.4629 6.04782 15.319C5.99751 15.175 5.98115 15.0213 6.00001 14.87V9H5.97001L0.210009 1.62C0.0476172 1.41153 -0.0256572 1.14726 0.00619692 0.88493C0.038051 0.622602 0.172444 0.383546 0.380009 0.22C0.570009 0.08 0.780009 0 1.00001 0H15C15.22 0 15.43 0.08 15.62 0.22C15.8276 0.383546 15.962 0.622602 15.9938 0.88493C16.0257 1.14726 15.9524 1.41153 15.79 1.62L10.03 9H10Z" fill="#F7B233"/>
</svg>
