<svg width="36" height="24" viewBox="0 0 36 24" fill="none" xmlns="http://www.w3.org/2000/svg">
<path d="M35.9778 0H0V24H35.9778V0Z" fill="#F0EFEF"/>
<path d="M9.01923 3.94992V1.97461H7.03698V3.94992H5.05473V5.92523H7.03698V7.90054H9.01923V5.92523H11.0015V3.94992H9.01923Z" fill="#D71F2A"/>
<path d="M29.0399 3.94992V1.97461H27.0577V3.94992H25.0754V5.92523H27.0577V7.90054H29.0399V5.92523H31.0222V3.94992H29.0399Z" fill="#D71F2A"/>
<path d="M9.01923 17.9753V16H7.03698V17.9753H5.05473V19.9506H7.03698V21.9259H9.01923V19.9506H11.0015V17.9753H9.01923Z" fill="#D71F2A"/>
<path d="M29.0399 17.9753V16H27.0577V17.9753H25.0754V19.9506H27.0577V21.9259H29.0399V19.9506H31.0222V17.9753H29.0399Z" fill="#D71F2A"/>
<path d="M19.9216 0H16.0562V24H19.9216V0Z" fill="#D71F2A"/>
<path d="M36 13.8851V10.0332L0.0222054 10.0332V13.8851L36 13.8851Z" fill="#D71F2A"/>
</svg>
