<svg width="19" height="22" viewBox="0 0 19 22" fill="none" xmlns="http://www.w3.org/2000/svg">
<path d="M18.8588 7.68221C18.1177 3.05868 13.8471 -0.294259 9.18824 0.0586825C4.35295 0.411624 0.682358 4.32927 0.647064 9.16456C0.647064 9.44692 0.647064 9.69398 0.647064 9.97633C0.647064 10.0822 0.682358 10.1528 0.682358 10.2587C0.929417 12.1646 1.77648 13.8234 2.87059 15.3763C4.52942 17.7057 6.68236 19.541 8.80001 21.4116C9.40001 21.9057 10.1765 21.8704 10.7765 21.3763C11.2 21.0234 11.5882 20.6704 11.9765 20.3175C13.9177 18.5881 15.7882 16.8234 17.2 14.5999C18.5765 12.4822 19.2824 10.2234 18.8588 7.68221ZM9.82353 12.941C7.6 12.941 5.76471 11.1057 5.76471 8.88221C5.76471 6.65868 7.6 4.82339 9.82353 4.82339C12.0471 4.82339 13.8824 6.65868 13.8824 8.88221C13.8824 11.0704 12.0471 12.9057 9.82353 12.941Z" fill="#F7B233"/>
</svg>
