<svg width="24" height="24" viewBox="0 0 24 24" fill="none" xmlns="http://www.w3.org/2000/svg">
<circle cx="12" cy="12" r="12" fill="#183D69"/>
<path d="M17.6113 10.9121H7.87726V10.6994C7.87726 9.21064 8.957 8 10.184 8H19.9998C20.0162 9.60328 19.0509 10.9121 17.6113 10.9121Z" fill="white"/>
<path d="M17.235 11.4683C17.235 13.4642 16.0244 15.7383 13.8322 15.7383H11.9672C11.9181 14.7894 11.1328 14.0532 10.1676 14.0532C9.20239 14.0532 8.41712 14.8058 8.36804 15.7546H4C4 13.6115 5.32514 11.4683 7.74638 11.4683H17.235Z" fill="white"/>
<path d="M10.184 17.1125C10.8797 17.1125 11.4437 16.5485 11.4437 15.8528C11.4437 15.1571 10.8797 14.5931 10.184 14.5931C9.48824 14.5931 8.92426 15.1571 8.92426 15.8528C8.92426 16.5485 9.48824 17.1125 10.184 17.1125Z" fill="white"/>
</svg>
