<svg width="19" height="22" viewBox="0 0 19 22" fill="none" xmlns="http://www.w3.org/2000/svg">
<path d="M18.3588 7.68233C17.6176 3.0588 13.347 -0.294137 8.68821 0.0588046C3.85292 0.411746 0.182328 4.32939 0.147034 9.16469C0.147034 9.44704 0.147034 9.6941 0.147034 9.97645C0.147034 10.0823 0.182328 10.1529 0.182328 10.2588C0.429387 12.1647 1.27645 13.8235 2.37056 15.3765C4.02939 17.7059 6.18233 19.5412 8.29997 21.4117C8.89997 21.9059 9.67645 21.8706 10.2764 21.3765C10.7 21.0235 11.0882 20.6706 11.4764 20.3176C13.4176 18.5882 15.2882 16.8235 16.7 14.6C18.0764 12.4823 18.7823 10.2235 18.3588 7.68233ZM9.3235 12.9412C7.09997 12.9412 5.26468 11.1059 5.26468 8.88233C5.26468 6.6588 7.09997 4.82351 9.3235 4.82351C11.547 4.82351 13.3823 6.6588 13.3823 8.88233C13.3823 11.0706 11.547 12.9059 9.3235 12.9412Z" fill="#183D69"/>
</svg>
