<svg width="21" height="22" viewBox="0 0 21 22" fill="none" xmlns="http://www.w3.org/2000/svg">
<path d="M20.2501 11.2312C20.2501 10.5098 20.1853 9.81617 20.0651 9.15027H10.4835V13.0902H15.9587C15.7182 14.3572 14.9968 15.4301 13.9148 16.1515V18.7133H17.2165C19.1402 16.9376 20.2501 14.3295 20.2501 11.2312Z" fill="#4285F4"/>
<path d="M10.4835 21.1735C13.2303 21.1735 15.5332 20.2672 17.2165 18.7134L13.9147 16.1515C13.0084 16.7619 11.8523 17.1319 10.4835 17.1319C7.8384 17.1319 5.59099 15.3469 4.78636 12.9423H1.40137V15.5689C3.07537 18.8891 6.5066 21.1735 10.4835 21.1735Z" fill="#34A853"/>
<path d="M4.78639 12.933C4.58292 12.3225 4.46268 11.6751 4.46268 11C4.46268 10.3248 4.58292 9.67744 4.78639 9.06703V6.44043H1.40139C0.707749 7.80922 0.310059 9.35374 0.310059 11C0.310059 12.6462 0.707749 14.1908 1.40139 15.5596L4.03725 13.5064L4.78639 12.933Z" fill="#FBBC05"/>
<path d="M10.4835 4.87743C11.9818 4.87743 13.3136 5.39535 14.3772 6.3942L17.2905 3.48089C15.524 1.83464 13.2303 0.826538 10.4835 0.826538C6.5066 0.826538 3.07537 3.11095 1.40137 6.44044L4.78636 9.06705C5.59099 6.66241 7.8384 4.87743 10.4835 4.87743Z" fill="#EA4335"/>
</svg>
