<svg width="32" height="32" viewBox="0 0 32 32" fill="none" xmlns="http://www.w3.org/2000/svg">
<path d="M9.83999 20.1119C9.87199 19.6799 9.91999 19.3119 9.91999 18.9439C9.87199 17.2799 8.70399 16.2239 6.95999 16.2399C5.34399 16.2559 4.25599 17.3119 4.20799 18.9279C4.20799 18.9919 4.22399 19.0719 4.20799 19.1359C4.09599 19.4719 4.52799 20.0159 3.83999 20.1439C2.92799 20.3199 2.39999 20.1119 2.19199 19.3919C2.04799 18.9119 2.01599 18.3839 1.96799 17.8879C1.95199 17.7279 1.95199 17.5199 2.03199 17.3919C2.43199 16.6879 2.83199 15.9839 3.26399 15.3119C3.59999 14.7999 4.17599 14.7199 4.70399 14.6239C5.98399 14.3839 7.26399 14.1759 8.54399 14.0159C9.07199 13.9519 9.51999 13.7599 9.95199 13.4879C11.184 12.7359 12.416 12.0159 13.664 11.2959C14.416 10.8479 15.248 10.6719 16.112 10.6719C18.784 10.6719 21.456 10.6879 24.128 10.6719C25.344 10.6719 26.4 11.0719 27.296 11.9039C27.488 12.0959 27.696 12.2879 27.904 12.4639C28.976 13.3599 29.6 14.4799 29.648 15.9199C29.664 16.3039 29.856 16.6879 29.984 17.0559C30.24 17.9199 30.192 18.7519 29.68 19.5039C29.552 19.6959 29.264 19.8399 29.024 19.9199C28.704 20.0159 28.352 20.0319 28.016 20.0799C27.312 20.1759 27.296 20.1439 27.344 19.4239C27.456 17.6319 26.576 16.6239 25.296 16.3039C23.712 15.9199 22.256 16.6239 21.808 18.0479C21.664 18.5279 21.68 19.0559 21.68 19.5679C21.68 19.9519 21.552 20.1439 21.152 20.1279C20.944 20.1279 20.736 20.1279 20.544 20.1279C17.328 20.1279 14.112 20.1279 10.896 20.1279C10.544 20.1599 10.208 20.1279 9.83999 20.1119ZM23.648 14.5599C23.392 13.5359 23.136 12.6559 22.944 11.7439C22.832 11.2639 22.512 11.1519 22.112 11.1519C21.152 11.1359 20.192 11.1519 19.248 11.1199C18.752 11.1039 18.608 11.3599 18.576 11.8079C18.512 12.5119 18.416 13.2319 18.272 13.9359C18.176 14.3999 18.304 14.5599 18.768 14.5599C20.336 14.5599 21.904 14.5599 23.648 14.5599ZM14.016 14.5599C14.832 14.5599 15.664 14.5439 16.48 14.5599C16.88 14.5599 17.104 14.4479 17.152 13.9999C17.232 13.1839 17.392 12.3839 17.504 11.5679C17.552 11.2479 17.408 11.1839 17.088 11.1839C15.44 11.1839 13.92 11.5679 12.576 12.5599C12.16 12.8639 11.728 13.1359 11.312 13.4239C11.008 13.6319 10.96 13.9039 11.024 14.2399C11.088 14.6399 11.424 14.5439 11.68 14.5599C12.448 14.5759 13.232 14.5599 14.016 14.5599ZM25.632 14.5599C25.936 14.5439 26.256 14.5919 26.544 14.5439C26.96 14.4799 27.232 14.0799 27.152 13.7439C26.928 12.7519 25.44 11.4559 24.416 11.3599C23.984 11.3119 23.84 11.4399 23.936 11.8879C24.096 12.6559 24.32 13.4079 24.496 14.1599C24.56 14.4479 24.704 14.5599 24.992 14.5599C25.216 14.5599 25.424 14.5599 25.632 14.5599Z" fill="#F7B233"/>
<path d="M4.79999 19.0239C4.81599 17.7279 5.79199 16.7999 7.11999 16.8319C8.31999 16.8479 9.31199 17.9039 9.31199 19.1039C9.29599 20.2399 8.19199 21.3439 7.05599 21.3439C5.80799 21.3279 4.78399 20.2719 4.79999 19.0239ZM7.10399 17.6799C6.30399 17.6479 5.71199 18.1919 5.66399 18.9599C5.61599 19.7439 6.23999 20.4319 7.02399 20.4639C7.67999 20.4959 8.39999 19.7919 8.44799 19.0879C8.46399 18.3839 7.82399 17.6959 7.10399 17.6799Z" fill="#F7B233"/>
<path d="M24.448 16.8162C25.792 16.7842 26.672 17.7762 26.752 19.0722C26.816 20.1922 25.68 21.2802 24.512 21.3122C23.344 21.3442 22.272 20.3202 22.256 19.1202C22.224 17.8082 23.152 16.8322 24.448 16.8162ZM23.104 19.1042C23.12 19.7922 23.792 20.4642 24.48 20.4642C25.184 20.4642 25.92 19.6962 25.904 18.9922C25.888 18.3042 25.184 17.6642 24.48 17.6642C23.664 17.6802 23.088 18.2722 23.104 19.1042Z" fill="#F7B233"/>
</svg>
