<svg width="24" height="24" viewBox="0 0 24 24" fill="none" xmlns="http://www.w3.org/2000/svg">
<g clip-path="url(#clip0_2081_1087)">
<path d="M19.4045 18.344L15.6678 14.6073C16.2074 13.8451 16.4972 12.9342 16.4972 12.0002C16.4972 11.0663 16.2074 10.1554 15.6678 9.39313L19.4045 5.65642C20.9181 7.42348 21.75 9.67352 21.75 12.0002C21.75 14.3269 20.9181 16.577 19.4045 18.344ZM18.3438 19.4047C16.5767 20.9183 14.3267 21.7503 12 21.7503C9.67329 21.7503 7.42325 20.9183 5.65619 19.4047L9.3929 15.668C10.1551 16.2076 11.0661 16.4975 12 16.4975C12.9339 16.4975 13.8449 16.2076 14.6071 15.668L18.3438 19.4047ZM4.59659 5.65748L8.3333 9.39419C7.79373 10.1562 7.50387 11.0669 7.50368 12.0006C7.50349 12.9343 7.79298 13.8451 8.33224 14.6073L4.59553 18.344C3.08189 16.577 2.24996 14.3269 2.24996 12.0002C2.24996 9.67352 3.0819 7.42348 4.59553 5.65642L4.59659 5.65748ZM5.65725 4.59682C7.42411 3.08332 9.67386 2.25137 12.0003 2.25118C14.3268 2.25098 16.5767 3.08256 18.3438 4.59576L14.6071 8.33247C13.8449 7.79282 12.9339 7.50301 12 7.50301C11.0661 7.50301 10.1551 7.79282 9.3929 8.33247L5.65619 4.59576L5.65725 4.59682Z" fill="#183D69"/>
</g>
<defs>
<clipPath id="clip0_2081_1087">
<rect width="24" height="24" fill="white"/>
</clipPath>
</defs>
</svg>
