<svg width="23" height="12" viewBox="0 0 23 12" fill="none" xmlns="http://www.w3.org/2000/svg">
<path d="M14.1333 5.5003C13.5333 4.8003 12.9333 4.1003 12.3333 3.4003C13.6333 1.6003 15.2333 0.400297 17.5333 0.500297C20.6333 0.600297 23.0333 3.2003 22.9333 6.3003C22.8333 9.3003 20.2333 11.7003 17.2333 11.6003C15.6333 11.5003 14.2333 10.9003 13.2333 9.7003C11.6333 7.9003 10.1333 6.1003 8.5333 4.3003C7.6333 3.3003 6.6333 3.0003 5.4333 3.4003C4.3333 3.7003 3.5333 4.7003 3.5333 5.8003C3.3333 7.0003 4.0333 8.0003 5.0333 8.5003C6.1333 9.0003 7.4333 8.8003 8.2333 8.0003C8.6333 7.6003 9.0333 7.1003 9.5333 6.6003C9.8333 7.0003 10.1333 7.3003 10.4333 7.6003C10.7333 8.0003 11.0333 8.3003 11.3333 8.6003C9.1333 11.8003 5.9333 12.1003 3.6333 10.8003C1.5333 9.6003 0.533301 7.7003 0.833301 5.3003C1.0333 3.0003 2.3333 1.4003 4.5333 0.700297C6.7333 0.000297278 8.7333 0.500298 10.4333 2.3003C12.0333 4.0003 13.5333 5.9003 15.1333 7.7003C15.8333 8.6003 16.8333 9.0003 17.9333 8.8003C19.1333 8.6003 20.0333 7.7003 20.2333 6.4003C20.4333 5.3003 19.8333 4.1003 18.7333 3.6003C17.6333 3.0003 16.2333 3.2003 15.4333 4.0003C14.9333 4.4003 14.5333 4.9003 14.1333 5.5003Z" fill="#183D69"/>
</svg>
