<svg width="22" height="20" viewBox="0 0 22 20" fill="none" xmlns="http://www.w3.org/2000/svg">
<path d="M19.2 0H8.53333V3.33333H11.2V4.66667H2.53333C1.39999 4.66667 0.533325 5.53333 0.533325 6.66667V14C0.533325 15.1333 1.39999 16 2.53333 16H3.19999V19.4L7.39999 16H11.8667V11.3333H19.2C20.3333 11.3333 21.2 10.4667 21.2 9.33333V2C21.2 0.866667 20.3333 0 19.2 0ZM7.73333 13.2667L7.39999 12.2H5.33333L4.93332 13.2667H3.33333L5.53333 7.33333H7.13333L9.33333 13.2667H7.73333ZM17.8667 8V9.33333C17 9.33333 16.0667 9.06667 15.2667 8.66667C14.4667 9.06667 13.5333 9.26667 12.6 9.33333L12.5333 8C13 8 13.4667 7.93333 13.9333 7.8C13.3333 7.2 12.9333 6.46667 12.7333 5.66667H14.1333C14.3333 6.26667 14.7333 6.73333 15.2 7.13333C15.9333 6.53333 16.4 5.66667 16.4667 4.66667H12.4667V3.33333H14.4667V2H15.8V3.33333H18L18.0667 4C18.1333 5.4 17.6 6.8 16.6 7.8C17.0667 7.93333 17.4667 8 17.8667 8Z" fill="#183D69"/>
</svg>
