<svg width="16" height="22" viewBox="0 0 16 22" fill="none" xmlns="http://www.w3.org/2000/svg">
<path fill-rule="evenodd" clip-rule="evenodd" d="M4 0.500002C3.88224 0.499994 3.76613 0.527718 3.66107 0.580927C3.55602 0.634137 3.46497 0.711337 3.3953 0.806277C3.32563 0.901218 3.27929 1.01123 3.26004 1.12741C3.24079 1.24359 3.24917 1.36266 3.2845 1.475L3.4495 2H1C0.801088 2 0.610322 2.07902 0.46967 2.21967C0.329018 2.36032 0.25 2.55109 0.25 2.75V20.75C0.25 20.9489 0.329018 21.1397 0.46967 21.2803C0.610322 21.421 0.801088 21.5 1 21.5H14.5C14.6989 21.5 14.8897 21.421 15.0303 21.2803C15.171 21.1397 15.25 20.9489 15.25 20.75V2.75C15.25 2.55109 15.171 2.36032 15.0303 2.21967C14.8897 2.07902 14.6989 2 14.5 2H12.052L12.217 1.475C12.2524 1.36254 12.2607 1.24333 12.2414 1.12704C12.2221 1.01074 12.1756 0.900645 12.1058 0.805672C12.0359 0.710699 11.9447 0.633527 11.8394 0.580418C11.7342 0.527309 11.6179 0.499759 11.5 0.500002H4ZM5.02 2H10.48L10.0105 3.5H5.4895L5.02 2ZM7.531 15.281L12.781 10.031L11.7205 8.969L7 13.6895L4.531 11.219L3.469 12.281L6.469 15.281C6.53867 15.3508 6.62143 15.4063 6.71255 15.4441C6.80367 15.4819 6.90135 15.5013 7 15.5013C7.09865 15.5013 7.19633 15.4819 7.28745 15.4441C7.37857 15.4063 7.46133 15.3508 7.531 15.281Z" fill="#183D69"/>
</svg>
