<svg width="21" height="20" viewBox="0 0 21 20" fill="none" xmlns="http://www.w3.org/2000/svg">
<path d="M7.68232 5.19969H6.58821C6.23526 5.19969 5.95291 5.48204 5.95291 5.83498V6.9291C5.95291 7.28204 6.23526 7.5644 6.58821 7.5644H7.68232C8.03526 7.5644 8.31762 7.28204 8.31762 6.9291V5.83498C8.31762 5.48204 8.03526 5.19969 7.68232 5.19969ZM7.68232 5.19969H6.58821C6.23526 5.19969 5.95291 5.48204 5.95291 5.83498V6.9291C5.95291 7.28204 6.23526 7.5644 6.58821 7.5644H7.68232C8.03526 7.5644 8.31762 7.28204 8.31762 6.9291V5.83498C8.31762 5.48204 8.03526 5.19969 7.68232 5.19969ZM7.68232 5.19969H6.58821C6.23526 5.19969 5.95291 5.48204 5.95291 5.83498V6.9291C5.95291 7.28204 6.23526 7.5644 6.58821 7.5644H7.68232C8.03526 7.5644 8.31762 7.28204 8.31762 6.9291V5.83498C8.31762 5.48204 8.03526 5.19969 7.68232 5.19969ZM15.4823 5.19969H14.3882C14.0353 5.19969 13.7529 5.48204 13.7529 5.83498V6.9291C13.7529 7.28204 14.0353 7.5644 14.3882 7.5644H15.4823C15.8353 7.5644 16.1176 7.28204 16.1176 6.9291V5.83498C16.1529 5.48204 15.8353 5.19969 15.4823 5.19969ZM15.4823 5.19969H14.3882C14.0353 5.19969 13.7529 5.48204 13.7529 5.83498V6.9291C13.7529 7.28204 14.0353 7.5644 14.3882 7.5644H15.4823C15.8353 7.5644 16.1176 7.28204 16.1176 6.9291V5.83498C16.1529 5.48204 15.8353 5.19969 15.4823 5.19969ZM7.68232 5.19969H6.58821C6.23526 5.19969 5.95291 5.48204 5.95291 5.83498V6.9291C5.95291 7.28204 6.23526 7.5644 6.58821 7.5644H7.68232C8.03526 7.5644 8.31762 7.28204 8.31762 6.9291V5.83498C8.31762 5.48204 8.03526 5.19969 7.68232 5.19969ZM7.68232 5.19969H6.58821C6.23526 5.19969 5.95291 5.48204 5.95291 5.83498V6.9291C5.95291 7.28204 6.23526 7.5644 6.58821 7.5644H7.68232C8.03526 7.5644 8.31762 7.28204 8.31762 6.9291V5.83498C8.31762 5.48204 8.03526 5.19969 7.68232 5.19969ZM15.4823 5.19969H14.3882C14.0353 5.19969 13.7529 5.48204 13.7529 5.83498V6.9291C13.7529 7.28204 14.0353 7.5644 14.3882 7.5644H15.4823C15.8353 7.5644 16.1176 7.28204 16.1176 6.9291V5.83498C16.1529 5.48204 15.8353 5.19969 15.4823 5.19969ZM15.4823 5.19969H14.3882C14.0353 5.19969 13.7529 5.48204 13.7529 5.83498V6.9291C13.7529 7.28204 14.0353 7.5644 14.3882 7.5644H15.4823C15.8353 7.5644 16.1176 7.28204 16.1176 6.9291V5.83498C16.1529 5.48204 15.8353 5.19969 15.4823 5.19969ZM7.68232 5.19969H6.58821C6.23526 5.19969 5.95291 5.48204 5.95291 5.83498V6.9291C5.95291 7.28204 6.23526 7.5644 6.58821 7.5644H7.68232C8.03526 7.5644 8.31762 7.28204 8.31762 6.9291V5.83498C8.31762 5.48204 8.03526 5.19969 7.68232 5.19969ZM18.1294 0.329102H3.83526C2.24703 0.329102 0.97644 1.59969 0.97644 3.18793V16.7762C0.97644 18.3644 2.24703 19.635 3.83526 19.635H18.1294C19.7176 19.635 20.9882 18.3644 20.9882 16.7762V3.18793C21.0235 1.67028 19.7176 0.329102 18.1294 0.329102ZM9.97644 15.5056C9.97644 16.1056 9.69409 16.4232 9.09409 16.4232H5.24703C4.64703 16.3879 4.32938 16.0703 4.32938 15.4703V11.7291C4.32938 11.1291 4.61173 10.8115 5.24703 10.8115H9.0235C9.65879 10.8115 9.94115 11.0938 9.94115 11.7997V15.5056H9.97644ZM9.97644 8.30557C9.97644 8.90557 9.69409 9.22322 9.09409 9.22322H5.24703C4.64703 9.18793 4.32938 8.87028 4.32938 8.27028V4.49381C4.32938 3.89381 4.61173 3.57616 5.24703 3.57616H9.0235C9.65879 3.57616 9.94115 3.85851 9.94115 4.5644V8.30557H9.97644ZM14.4941 15.7879C14.4941 16.1409 14.2117 16.4232 13.8588 16.4232H12.7647C12.4117 16.4232 12.1294 16.1409 12.1294 15.7879V14.6938C12.1294 14.3409 12.4117 14.0585 12.7647 14.0585H13.8588C14.2117 14.0585 14.4941 14.3409 14.4941 14.6938V15.7879ZM14.4941 12.5056C14.4941 12.8585 14.2117 13.1409 13.8588 13.1409H12.7647C12.4117 13.1409 12.1294 12.8585 12.1294 12.5056V11.4115C12.1294 11.0585 12.4117 10.7762 12.7647 10.7762H13.8588C14.2117 10.7762 14.4941 11.0585 14.4941 11.4115V12.5056ZM17.7764 15.7879C17.7764 16.1409 17.4941 16.4232 17.1411 16.4232H16.047C15.6941 16.4232 15.4117 16.1409 15.4117 15.7879V14.6938C15.4117 14.3409 15.6941 14.0585 16.047 14.0585H17.1411C17.4941 14.0585 17.7764 14.3409 17.7764 14.6938V15.7879ZM17.7764 12.5056C17.7764 12.8585 17.4941 13.1409 17.1411 13.1409H16.047C15.6941 13.1409 15.4117 12.8585 15.4117 12.5056V11.4115C15.4117 11.0585 15.6941 10.7762 16.047 10.7762H17.1411C17.4941 10.7762 17.7764 11.0585 17.7764 11.4115V12.5056ZM17.7764 8.30557C17.7764 8.90557 17.4941 9.22322 16.8941 9.22322H13.0823C12.4823 9.18793 12.1647 8.87028 12.1647 8.27028V4.49381C12.1647 3.89381 12.447 3.57616 13.0823 3.57616H16.8588C17.4941 3.57616 17.7764 3.85851 17.7764 4.5644V8.30557ZM15.4823 5.19969H14.3882C14.0353 5.19969 13.7529 5.48204 13.7529 5.83498V6.9291C13.7529 7.28204 14.0353 7.5644 14.3882 7.5644H15.4823C15.8353 7.5644 16.1176 7.28204 16.1176 6.9291V5.83498C16.1529 5.48204 15.8353 5.19969 15.4823 5.19969ZM7.68232 5.19969H6.58821C6.23526 5.19969 5.95291 5.48204 5.95291 5.83498V6.9291C5.95291 7.28204 6.23526 7.5644 6.58821 7.5644H7.68232C8.03526 7.5644 8.31762 7.28204 8.31762 6.9291V5.83498C8.31762 5.48204 8.03526 5.19969 7.68232 5.19969ZM7.68232 5.19969H6.58821C6.23526 5.19969 5.95291 5.48204 5.95291 5.83498V6.9291C5.95291 7.28204 6.23526 7.5644 6.58821 7.5644H7.68232C8.03526 7.5644 8.31762 7.28204 8.31762 6.9291V5.83498C8.31762 5.48204 8.03526 5.19969 7.68232 5.19969ZM15.4823 5.19969H14.3882C14.0353 5.19969 13.7529 5.48204 13.7529 5.83498V6.9291C13.7529 7.28204 14.0353 7.5644 14.3882 7.5644H15.4823C15.8353 7.5644 16.1176 7.28204 16.1176 6.9291V5.83498C16.1529 5.48204 15.8353 5.19969 15.4823 5.19969ZM15.4823 5.19969H14.3882C14.0353 5.19969 13.7529 5.48204 13.7529 5.83498V6.9291C13.7529 7.28204 14.0353 7.5644 14.3882 7.5644H15.4823C15.8353 7.5644 16.1176 7.28204 16.1176 6.9291V5.83498C16.1529 5.48204 15.8353 5.19969 15.4823 5.19969ZM7.68232 5.19969H6.58821C6.23526 5.19969 5.95291 5.48204 5.95291 5.83498V6.9291C5.95291 7.28204 6.23526 7.5644 6.58821 7.5644H7.68232C8.03526 7.5644 8.31762 7.28204 8.31762 6.9291V5.83498C8.31762 5.48204 8.03526 5.19969 7.68232 5.19969ZM7.68232 5.19969H6.58821C6.23526 5.19969 5.95291 5.48204 5.95291 5.83498V6.9291C5.95291 7.28204 6.23526 7.5644 6.58821 7.5644H7.68232C8.03526 7.5644 8.31762 7.28204 8.31762 6.9291V5.83498C8.31762 5.48204 8.03526 5.19969 7.68232 5.19969ZM15.4823 5.19969H14.3882C14.0353 5.19969 13.7529 5.48204 13.7529 5.83498V6.9291C13.7529 7.28204 14.0353 7.5644 14.3882 7.5644H15.4823C15.8353 7.5644 16.1176 7.28204 16.1176 6.9291V5.83498C16.1529 5.48204 15.8353 5.19969 15.4823 5.19969ZM15.4823 5.19969H14.3882C14.0353 5.19969 13.7529 5.48204 13.7529 5.83498V6.9291C13.7529 7.28204 14.0353 7.5644 14.3882 7.5644H15.4823C15.8353 7.5644 16.1176 7.28204 16.1176 6.9291V5.83498C16.1529 5.48204 15.8353 5.19969 15.4823 5.19969ZM7.68232 5.19969H6.58821C6.23526 5.19969 5.95291 5.48204 5.95291 5.83498V6.9291C5.95291 7.28204 6.23526 7.5644 6.58821 7.5644H7.68232C8.03526 7.5644 8.31762 7.28204 8.31762 6.9291V5.83498C8.31762 5.48204 8.03526 5.19969 7.68232 5.19969Z" fill="#F7B233"/>
</svg>
