<svg width="21" height="20" viewBox="0 0 21 20" fill="none" xmlns="http://www.w3.org/2000/svg">
<path d="M7.68232 5.2H6.58821C6.23526 5.2 5.95291 5.48235 5.95291 5.83529V6.92941C5.95291 7.28235 6.23526 7.5647 6.58821 7.5647H7.68232C8.03526 7.5647 8.31762 7.28235 8.31762 6.92941V5.83529C8.31762 5.48235 8.03526 5.2 7.68232 5.2ZM7.68232 5.2H6.58821C6.23526 5.2 5.95291 5.48235 5.95291 5.83529V6.92941C5.95291 7.28235 6.23526 7.5647 6.58821 7.5647H7.68232C8.03526 7.5647 8.31762 7.28235 8.31762 6.92941V5.83529C8.31762 5.48235 8.03526 5.2 7.68232 5.2ZM7.68232 5.2H6.58821C6.23526 5.2 5.95291 5.48235 5.95291 5.83529V6.92941C5.95291 7.28235 6.23526 7.5647 6.58821 7.5647H7.68232C8.03526 7.5647 8.31762 7.28235 8.31762 6.92941V5.83529C8.31762 5.48235 8.03526 5.2 7.68232 5.2ZM15.4823 5.2H14.3882C14.0353 5.2 13.7529 5.48235 13.7529 5.83529V6.92941C13.7529 7.28235 14.0353 7.5647 14.3882 7.5647H15.4823C15.8353 7.5647 16.1176 7.28235 16.1176 6.92941V5.83529C16.1529 5.48235 15.8353 5.2 15.4823 5.2ZM15.4823 5.2H14.3882C14.0353 5.2 13.7529 5.48235 13.7529 5.83529V6.92941C13.7529 7.28235 14.0353 7.5647 14.3882 7.5647H15.4823C15.8353 7.5647 16.1176 7.28235 16.1176 6.92941V5.83529C16.1529 5.48235 15.8353 5.2 15.4823 5.2ZM7.68232 5.2H6.58821C6.23526 5.2 5.95291 5.48235 5.95291 5.83529V6.92941C5.95291 7.28235 6.23526 7.5647 6.58821 7.5647H7.68232C8.03526 7.5647 8.31762 7.28235 8.31762 6.92941V5.83529C8.31762 5.48235 8.03526 5.2 7.68232 5.2ZM7.68232 5.2H6.58821C6.23526 5.2 5.95291 5.48235 5.95291 5.83529V6.92941C5.95291 7.28235 6.23526 7.5647 6.58821 7.5647H7.68232C8.03526 7.5647 8.31762 7.28235 8.31762 6.92941V5.83529C8.31762 5.48235 8.03526 5.2 7.68232 5.2ZM15.4823 5.2H14.3882C14.0353 5.2 13.7529 5.48235 13.7529 5.83529V6.92941C13.7529 7.28235 14.0353 7.5647 14.3882 7.5647H15.4823C15.8353 7.5647 16.1176 7.28235 16.1176 6.92941V5.83529C16.1529 5.48235 15.8353 5.2 15.4823 5.2ZM15.4823 5.2H14.3882C14.0353 5.2 13.7529 5.48235 13.7529 5.83529V6.92941C13.7529 7.28235 14.0353 7.5647 14.3882 7.5647H15.4823C15.8353 7.5647 16.1176 7.28235 16.1176 6.92941V5.83529C16.1529 5.48235 15.8353 5.2 15.4823 5.2ZM7.68232 5.2H6.58821C6.23526 5.2 5.95291 5.48235 5.95291 5.83529V6.92941C5.95291 7.28235 6.23526 7.5647 6.58821 7.5647H7.68232C8.03526 7.5647 8.31762 7.28235 8.31762 6.92941V5.83529C8.31762 5.48235 8.03526 5.2 7.68232 5.2ZM18.1294 0.329407H3.83526C2.24703 0.329407 0.97644 1.6 0.97644 3.18823V16.7765C0.97644 18.3647 2.24703 19.6353 3.83526 19.6353H18.1294C19.7176 19.6353 20.9882 18.3647 20.9882 16.7765V3.18823C21.0235 1.67058 19.7176 0.329407 18.1294 0.329407ZM9.97644 15.5059C9.97644 16.1059 9.69409 16.4235 9.09409 16.4235H5.24703C4.64703 16.3882 4.32938 16.0706 4.32938 15.4706V11.7294C4.32938 11.1294 4.61173 10.8118 5.24703 10.8118H9.0235C9.65879 10.8118 9.94115 11.0941 9.94115 11.8V15.5059H9.97644ZM9.97644 8.30588C9.97644 8.90588 9.69409 9.22352 9.09409 9.22352H5.24703C4.64703 9.18823 4.32938 8.87058 4.32938 8.27058V4.49411C4.32938 3.89411 4.61173 3.57647 5.24703 3.57647H9.0235C9.65879 3.57647 9.94115 3.85882 9.94115 4.5647V8.30588H9.97644ZM14.4941 15.7882C14.4941 16.1412 14.2117 16.4235 13.8588 16.4235H12.7647C12.4117 16.4235 12.1294 16.1412 12.1294 15.7882V14.6941C12.1294 14.3412 12.4117 14.0588 12.7647 14.0588H13.8588C14.2117 14.0588 14.4941 14.3412 14.4941 14.6941V15.7882ZM14.4941 12.5059C14.4941 12.8588 14.2117 13.1412 13.8588 13.1412H12.7647C12.4117 13.1412 12.1294 12.8588 12.1294 12.5059V11.4118C12.1294 11.0588 12.4117 10.7765 12.7647 10.7765H13.8588C14.2117 10.7765 14.4941 11.0588 14.4941 11.4118V12.5059ZM17.7764 15.7882C17.7764 16.1412 17.4941 16.4235 17.1411 16.4235H16.047C15.6941 16.4235 15.4117 16.1412 15.4117 15.7882V14.6941C15.4117 14.3412 15.6941 14.0588 16.047 14.0588H17.1411C17.4941 14.0588 17.7764 14.3412 17.7764 14.6941V15.7882ZM17.7764 12.5059C17.7764 12.8588 17.4941 13.1412 17.1411 13.1412H16.047C15.6941 13.1412 15.4117 12.8588 15.4117 12.5059V11.4118C15.4117 11.0588 15.6941 10.7765 16.047 10.7765H17.1411C17.4941 10.7765 17.7764 11.0588 17.7764 11.4118V12.5059ZM17.7764 8.30588C17.7764 8.90588 17.4941 9.22352 16.8941 9.22352H13.0823C12.4823 9.18823 12.1647 8.87058 12.1647 8.27058V4.49411C12.1647 3.89411 12.447 3.57647 13.0823 3.57647H16.8588C17.4941 3.57647 17.7764 3.85882 17.7764 4.5647V8.30588ZM15.4823 5.2H14.3882C14.0353 5.2 13.7529 5.48235 13.7529 5.83529V6.92941C13.7529 7.28235 14.0353 7.5647 14.3882 7.5647H15.4823C15.8353 7.5647 16.1176 7.28235 16.1176 6.92941V5.83529C16.1529 5.48235 15.8353 5.2 15.4823 5.2ZM7.68232 5.2H6.58821C6.23526 5.2 5.95291 5.48235 5.95291 5.83529V6.92941C5.95291 7.28235 6.23526 7.5647 6.58821 7.5647H7.68232C8.03526 7.5647 8.31762 7.28235 8.31762 6.92941V5.83529C8.31762 5.48235 8.03526 5.2 7.68232 5.2ZM7.68232 5.2H6.58821C6.23526 5.2 5.95291 5.48235 5.95291 5.83529V6.92941C5.95291 7.28235 6.23526 7.5647 6.58821 7.5647H7.68232C8.03526 7.5647 8.31762 7.28235 8.31762 6.92941V5.83529C8.31762 5.48235 8.03526 5.2 7.68232 5.2ZM15.4823 5.2H14.3882C14.0353 5.2 13.7529 5.48235 13.7529 5.83529V6.92941C13.7529 7.28235 14.0353 7.5647 14.3882 7.5647H15.4823C15.8353 7.5647 16.1176 7.28235 16.1176 6.92941V5.83529C16.1529 5.48235 15.8353 5.2 15.4823 5.2ZM15.4823 5.2H14.3882C14.0353 5.2 13.7529 5.48235 13.7529 5.83529V6.92941C13.7529 7.28235 14.0353 7.5647 14.3882 7.5647H15.4823C15.8353 7.5647 16.1176 7.28235 16.1176 6.92941V5.83529C16.1529 5.48235 15.8353 5.2 15.4823 5.2ZM7.68232 5.2H6.58821C6.23526 5.2 5.95291 5.48235 5.95291 5.83529V6.92941C5.95291 7.28235 6.23526 7.5647 6.58821 7.5647H7.68232C8.03526 7.5647 8.31762 7.28235 8.31762 6.92941V5.83529C8.31762 5.48235 8.03526 5.2 7.68232 5.2ZM7.68232 5.2H6.58821C6.23526 5.2 5.95291 5.48235 5.95291 5.83529V6.92941C5.95291 7.28235 6.23526 7.5647 6.58821 7.5647H7.68232C8.03526 7.5647 8.31762 7.28235 8.31762 6.92941V5.83529C8.31762 5.48235 8.03526 5.2 7.68232 5.2ZM15.4823 5.2H14.3882C14.0353 5.2 13.7529 5.48235 13.7529 5.83529V6.92941C13.7529 7.28235 14.0353 7.5647 14.3882 7.5647H15.4823C15.8353 7.5647 16.1176 7.28235 16.1176 6.92941V5.83529C16.1529 5.48235 15.8353 5.2 15.4823 5.2ZM15.4823 5.2H14.3882C14.0353 5.2 13.7529 5.48235 13.7529 5.83529V6.92941C13.7529 7.28235 14.0353 7.5647 14.3882 7.5647H15.4823C15.8353 7.5647 16.1176 7.28235 16.1176 6.92941V5.83529C16.1529 5.48235 15.8353 5.2 15.4823 5.2ZM7.68232 5.2H6.58821C6.23526 5.2 5.95291 5.48235 5.95291 5.83529V6.92941C5.95291 7.28235 6.23526 7.5647 6.58821 7.5647H7.68232C8.03526 7.5647 8.31762 7.28235 8.31762 6.92941V5.83529C8.31762 5.48235 8.03526 5.2 7.68232 5.2Z" fill="#183D69"/>
</svg>
