<svg width="20" height="20" viewBox="0 0 20 20" fill="none" xmlns="http://www.w3.org/2000/svg">
<path d="M10 0C15.5231 0 20 4.47688 20 10C20 15.5231 15.5231 20 10 20C4.47688 20 0 15.5231 0 10C0 4.47688 4.47688 0 10 0ZM10 3.75L8.87563 4.40937L5.8125 6.21562L4.6875 6.875V13.125L5.81187 13.7844L8.90375 15.5906L10.0281 16.25L11.1525 15.5906L14.1881 13.7844L15.3125 13.125V6.875L14.1881 6.21562L11.1244 4.40937L10 3.75ZM10 6.3875L13.0638 8.19375V11.8062L10 13.6125L6.93625 11.8062V8.19375L10 6.3875Z" fill="#183D69"/>
</svg>
