<svg width="20" height="20" viewBox="0 0 20 20" fill="none" xmlns="http://www.w3.org/2000/svg">
<path d="M10 0.25C4.62391 0.25 0.25 4.62391 0.25 10C0.25 15.3761 4.62391 19.75 10 19.75C15.3761 19.75 19.75 15.3761 19.75 10C19.75 4.62391 15.3761 0.25 10 0.25ZM15.625 9.19234H11.4531L13.1819 7.46359L12.9194 7.15844C12.4498 6.67099 11.8668 6.30749 11.2225 6.10044C10.5781 5.89339 9.89248 5.84923 9.22689 5.97193C8.5613 6.09462 7.93648 6.38034 7.4083 6.80354C6.88012 7.22674 6.46504 7.77422 6.20017 8.39705C5.9353 9.01988 5.8289 9.69863 5.89047 10.3726C5.95204 11.0466 6.17968 11.6949 6.55302 12.2594C6.92636 12.8239 7.43377 13.2871 8.02989 13.6076C8.62601 13.9281 9.29225 14.0959 9.96906 14.0959C10.8161 14.0951 11.6421 13.8323 12.3338 13.3434C13.0255 12.8546 13.549 12.1636 13.8325 11.3655L14.0842 10.6562L15.4984 11.1564L15.25 11.8656C14.9082 12.8331 14.307 13.6879 13.5121 14.3367C12.7172 14.9855 11.7593 15.4034 10.743 15.5446C9.72675 15.6858 8.69121 15.5449 7.74959 15.1373C6.80797 14.7297 5.99651 14.0711 5.4039 13.2335C4.8113 12.3959 4.46034 11.4115 4.3894 10.3879C4.31846 9.36431 4.53026 8.34092 5.00166 7.42957C5.47306 6.51822 6.18591 5.75399 7.0623 5.22041C7.93869 4.68682 8.94489 4.40442 9.97094 4.40406C10.7282 4.40117 11.478 4.55335 12.1742 4.85123C12.8704 5.14911 13.4983 5.58637 14.0191 6.13609L14.0453 6.16516L14.2473 6.39953L15.625 5.02234V9.19234Z" fill="#F7B233"/>
</svg>
