<svg width="20" height="20" viewBox="0 0 20 20" fill="none" xmlns="http://www.w3.org/2000/svg">
<path fill-rule="evenodd" clip-rule="evenodd" d="M16.5 13C15.4834 13 14.5759 13.4404 13.9365 14.1326L6.94261 11.0689C6.97327 10.8827 6.99998 10.6949 6.99998 10.5C6.99998 10.1359 6.92864 9.79172 6.82552 9.46153L13.9503 5.88408C14.589 6.56705 15.4912 6.99998 16.5 6.99998C18.433 6.99998 20 5.43295 20 3.50002C20 1.56703 18.433 0 16.5 0C14.567 0 13 1.56703 13 3.50002C13 3.70345 13.0266 3.9 13.0599 4.09392L5.69325 7.79283C5.09156 7.30458 4.33514 6.99998 3.49997 6.99998C1.56703 6.99998 0 8.56702 0 10.5C0 12.433 1.56703 14 3.50002 14C4.51659 14 5.42405 13.5596 6.06347 12.8674L13.0574 15.9311C13.0268 16.1173 13 16.3051 13 16.5C13 18.433 14.567 20 16.5 20C18.433 20 20 18.433 20 16.5C20 14.567 18.433 13 16.5 13Z" fill="#F7B233"/>
</svg>
