<svg width="20" height="16" viewBox="0 0 20 16" fill="none" xmlns="http://www.w3.org/2000/svg">
<path d="M12.0054 0C15.7851 1.53547e-09 17.6751 -8.2523e-05 18.8501 1.17188C19.6601 1.97787 19.9107 3.12326 19.9897 4.98926C20.0047 5.35909 20.0128 5.545 19.9438 5.66797C19.8738 5.79094 19.5991 5.94606 19.0474 6.25391C18.7364 6.42725 18.4767 6.68036 18.2964 6.9873C18.1161 7.29426 18.021 7.64401 18.021 8C18.021 8.35599 18.1161 8.70574 18.2964 9.0127C18.4767 9.31964 18.7364 9.57275 19.0474 9.74609C19.5991 10.0549 19.8748 10.2091 19.9438 10.332C20.0128 10.455 20.0048 10.6399 19.9888 11.0098C19.9108 12.8768 19.6591 14.0221 18.8501 14.8281C17.6761 16.0001 15.7861 16 12.0054 16H7.99463C4.21489 16 2.32487 16.0001 1.1499 14.8281C0.339904 14.0221 0.0892558 12.8767 0.0102558 11.0107C-0.00473777 10.6409 -0.0128305 10.455 0.0561543 10.332C0.126197 10.2091 0.400918 10.0549 0.952639 9.74609C1.26357 9.57275 1.52331 9.31965 1.70362 9.0127C1.88391 8.70575 1.97901 8.35598 1.97901 8C1.97901 7.64402 1.88391 7.29425 1.70362 6.9873C1.52331 6.68035 1.26357 6.42725 0.952639 6.25391C0.400917 5.94606 0.125197 5.79094 0.0561543 5.66797C-0.0128305 5.545 -0.00476055 5.36009 0.0112324 4.98926C0.0892324 3.12326 0.340904 1.97887 1.1499 1.17188C2.32387 -5.71131e-05 4.21389 9.88917e-10 7.99463 0H12.0054ZM10.0005 2.75195C9.89388 2.75195 9.78935 2.78268 9.68701 2.84375C9.58467 2.90487 9.50815 2.99596 9.45947 3.11816L8.36475 5.83984L5.53272 6.09961C5.39689 6.11958 5.28968 6.16561 5.21143 6.2373C5.13317 6.30905 5.07419 6.401 5.03565 6.5127C4.99722 6.62428 4.99005 6.73917 5.01416 6.85645C5.03835 6.97371 5.09954 7.07829 5.19678 7.16992L7.34326 9.11133L6.70069 12.001C6.67158 12.1337 6.68136 12.2536 6.72998 12.3604C6.77861 12.4669 6.84665 12.5557 6.93408 12.627C7.02169 12.6983 7.12392 12.7398 7.24072 12.75C7.35749 12.7602 7.46963 12.7295 7.57666 12.6582L10.0005 11.1289L12.4243 12.6582C12.5311 12.7296 12.6428 12.7605 12.7593 12.75C12.8761 12.7394 12.9783 12.6979 13.0659 12.627C13.1535 12.556 13.2223 12.4675 13.271 12.3604C13.3196 12.2533 13.3294 12.1333 13.3003 12.001L12.6577 9.11133L14.8042 7.16992C14.9018 7.07864 14.9627 6.97379 14.9868 6.85645C15.0109 6.73923 15.0032 6.62463 14.9644 6.5127C14.9255 6.40072 14.8673 6.30861 14.7896 6.2373C14.7117 6.16602 14.6044 6.12002 14.4683 6.09961L11.6353 5.83984L10.5405 3.11816C10.4919 2.99613 10.4161 2.90485 10.314 2.84375C10.2117 2.78266 10.1071 2.75202 10.0005 2.75195Z" fill="#183D69"/>
</svg>
