<svg width="20" height="20" viewBox="0 0 20 20" fill="none" xmlns="http://www.w3.org/2000/svg">
<path d="M18.7249 3.27489H14.0349V2.38489C14.0312 1.7547 13.7798 1.15126 13.3349 0.704886C13.1133 0.482511 12.8499 0.306177 12.5599 0.18604C12.2698 0.0659024 11.9589 0.004336 11.6449 0.00488647H8.38494C8.071 0.004336 7.76005 0.0659024 7.47 0.18604C7.17996 0.306177 6.91655 0.482511 6.69494 0.704886C6.25375 1.15288 6.00599 1.75612 6.00494 2.38489V3.27489H1.31494C1.11603 3.27489 0.925264 3.3539 0.784611 3.49456C0.643959 3.63521 0.564941 3.82597 0.564941 4.02489C0.564941 4.2238 0.643959 4.41456 0.784611 4.55522C0.925264 4.69587 1.11603 4.77489 1.31494 4.77489H2.73494V16.5349C2.73086 16.9907 2.81714 17.4427 2.98878 17.865C3.16042 18.2872 3.41402 18.6712 3.73494 18.9949C4.38927 19.636 5.26888 19.995 6.18494 19.9949H13.8049C14.721 19.995 15.6006 19.636 16.2549 18.9949C16.5759 18.6712 16.8295 18.2872 17.0011 17.865C17.1727 17.4427 17.259 16.9907 17.2549 16.5349V4.77489H18.6849C18.8839 4.77489 19.0746 4.69587 19.2153 4.55522C19.3559 4.41456 19.4349 4.2238 19.4349 4.02489C19.4349 3.82597 19.3559 3.63521 19.2153 3.49456C19.0746 3.3539 18.8839 3.27489 18.6849 3.27489H18.7249ZM7.52494 2.38489C7.52498 2.26946 7.54799 2.1552 7.59263 2.04876C7.63727 1.94231 7.70264 1.84582 7.78494 1.76489C7.95026 1.60138 8.17245 1.50821 8.40494 1.50489H11.6649C11.782 1.50416 11.898 1.52678 12.0061 1.57142C12.1143 1.61606 12.2125 1.68184 12.2949 1.76489C12.4584 1.93021 12.5516 2.15239 12.5549 2.38489V3.27489H7.55494L7.52494 2.38489ZM8.85494 14.9949C8.85494 15.2601 8.74959 15.5145 8.56205 15.702C8.37451 15.8895 8.12016 15.9949 7.85494 15.9949C7.58972 15.9949 7.33537 15.8895 7.14783 15.702C6.9603 15.5145 6.85494 15.2601 6.85494 14.9949V9.56489C6.85494 9.29967 6.9603 9.04532 7.14783 8.85778C7.33537 8.67024 7.58972 8.56489 7.85494 8.56489C8.12016 8.56489 8.37451 8.67024 8.56205 8.85778C8.74959 9.04532 8.85494 9.29967 8.85494 9.56489V14.9949ZM13.2149 14.9949C13.2149 15.2601 13.1096 15.5145 12.922 15.702C12.7345 15.8895 12.4802 15.9949 12.2149 15.9949C11.9497 15.9949 11.6954 15.8895 11.5078 15.702C11.3203 15.5145 11.2149 15.2601 11.2149 14.9949V9.56489C11.2149 9.29967 11.3203 9.04532 11.5078 8.85778C11.6954 8.67024 11.9497 8.56489 12.2149 8.56489C12.4802 8.56489 12.7345 8.67024 12.922 8.85778C13.1096 9.04532 13.2149 9.29967 13.2149 9.56489V14.9949Z" fill="#F7B233"/>
</svg>
