<svg width="27" height="27" viewBox="0 0 27 27" fill="none" xmlns="http://www.w3.org/2000/svg">
<path d="M6.33339 10.6667C6.33368 8.40992 7.09733 6.21957 8.5002 4.45178C9.90307 2.68399 11.8627 1.4427 14.0604 0.92973C16.2581 0.416759 18.5647 0.662269 20.6053 1.62634C22.6458 2.59042 24.3002 4.21637 25.2995 6.23985C26.2989 8.26332 26.5844 10.5653 26.1096 12.7716C25.6349 14.9779 24.4278 16.9588 22.6846 18.3921C20.9414 19.8255 18.7646 20.627 16.5082 20.6665C14.2517 20.7059 12.0483 19.9809 10.2561 18.6094L7.87206 20.9921L9.77339 22.8934C9.90074 23.0164 10.0023 23.1635 10.0722 23.3262C10.1421 23.4889 10.1789 23.6638 10.1804 23.8409C10.1819 24.0179 10.1482 24.1935 10.0812 24.3573C10.0141 24.5212 9.91511 24.6701 9.78992 24.7953C9.66473 24.9204 9.51586 25.0194 9.352 25.0865C9.18814 25.1535 9.01256 25.1873 8.83552 25.1857C8.65848 25.1842 8.48353 25.1474 8.32085 25.0775C8.15818 25.0076 8.01106 24.9061 7.88806 24.7787L5.98673 22.8787L3.16006 25.7054C2.90987 25.9554 2.57061 26.0958 2.21692 26.0957C1.86323 26.0955 1.52407 25.9549 1.27406 25.7047C1.02405 25.4545 0.883664 25.1153 0.883789 24.7616C0.883914 24.4079 1.02454 24.0687 1.27473 23.8187L4.10139 20.9921L2.23073 19.1214C2.10338 18.9984 2.0018 18.8513 1.93192 18.6886C1.86205 18.5259 1.82526 18.351 1.82373 18.1739C1.82219 17.9969 1.85592 17.8213 1.92296 17.6575C1.99 17.4936 2.08901 17.3447 2.2142 17.2195C2.33939 17.0943 2.48826 16.9953 2.65212 16.9283C2.81598 16.8613 2.99156 16.8275 3.16859 16.8291C3.34563 16.8306 3.52059 16.8674 3.68327 16.9373C3.84594 17.0071 3.99306 17.1087 4.11606 17.2361L5.98673 19.1067L8.37339 16.7201C7.04724 14.981 6.33035 12.8537 6.33339 10.6667Z" fill="#F7B233"/>
</svg>
