<svg width="24" height="24" viewBox="0 0 24 24" fill="none" xmlns="http://www.w3.org/2000/svg">
<path d="M17.3333 0.333374C17.0681 0.333374 16.8137 0.438731 16.6262 0.626267C16.4387 0.813803 16.3333 1.06816 16.3333 1.33337C16.3333 1.59859 16.4387 1.85294 16.6262 2.04048C16.8137 2.22802 17.0681 2.33337 17.3333 2.33337H20.2466L14.9373 7.62404C13.1374 6.19178 10.8574 5.50305 8.56555 5.69929C6.27371 5.89554 4.14399 6.96185 2.61377 8.67926C1.08355 10.3967 0.268981 12.6348 0.337355 14.934C0.405729 17.2332 1.35185 19.419 2.98142 21.0424C4.611 22.6659 6.80032 23.6037 9.09977 23.6634C11.3992 23.7232 13.6343 22.9002 15.3459 21.3635C17.0575 19.8268 18.1158 17.6931 18.3034 15.4005C18.491 13.1079 17.7937 10.8305 16.3546 9.03604L21.6666 3.74271V6.66671C21.6666 6.93192 21.772 7.18628 21.9595 7.37381C22.1471 7.56135 22.4014 7.66671 22.6666 7.66671C22.9319 7.66671 23.1862 7.56135 23.3737 7.37381C23.5613 7.18628 23.6666 6.93192 23.6666 6.66671V1.33337C23.6666 1.06816 23.5613 0.813803 23.3737 0.626267C23.1862 0.438731 22.9319 0.333374 22.6666 0.333374H17.3333Z" fill="#F7B233"/>
</svg>
