<svg width="24" height="24" viewBox="0 0 24 24" fill="none" xmlns="http://www.w3.org/2000/svg">
<path d="M10.1 5.374C10.232 4.97436 10.4867 4.62652 10.8278 4.37996C11.1689 4.13341 11.5791 4.00069 12 4.00069C12.4209 4.00069 12.831 4.13341 13.1722 4.37996C13.5133 4.62652 13.768 4.97436 13.9 5.374C14.8172 5.75079 15.6016 6.39178 16.1536 7.21549C16.7056 8.0392 17.0002 9.00844 17 10V14L19.146 16.146C19.216 16.2159 19.2638 16.3049 19.2832 16.402C19.3026 16.499 19.2928 16.5996 19.255 16.691C19.2172 16.7824 19.1531 16.8606 19.0709 16.9156C18.9886 16.9706 18.8919 17 18.793 17H5.20699C5.10805 17 5.01135 16.9706 4.92911 16.9156C4.84687 16.8606 4.7828 16.7824 4.74501 16.691C4.70722 16.5996 4.6974 16.499 4.7168 16.402C4.7362 16.3049 4.78394 16.2159 4.85399 16.146L6.99999 14V10C6.99977 9.00844 7.29439 8.0392 7.84638 7.21549C8.39837 6.39178 9.18281 5.75079 10.1 5.374ZM9.99999 18C9.99999 18.5304 10.2107 19.0391 10.5858 19.4142C10.9608 19.7893 11.4696 20 12 20C12.5304 20 13.0391 19.7893 13.4142 19.4142C13.7893 19.0391 14 18.5304 14 18H9.99999Z" fill="#183D69"/>
<path fill-rule="evenodd" clip-rule="evenodd" d="M18 10C18.6566 10 19.3068 9.87067 19.9134 9.6194C20.52 9.36812 21.0712 8.99983 21.5355 8.53553C21.9998 8.07124 22.3681 7.52005 22.6194 6.91342C22.8707 6.30679 23 5.65661 23 5C23 4.34339 22.8707 3.69321 22.6194 3.08658C22.3681 2.47995 21.9998 1.92876 21.5355 1.46447C21.0712 1.00017 20.52 0.631876 19.9134 0.380602C19.3068 0.129329 18.6566 -9.78424e-09 18 0C16.6739 1.97602e-08 15.4021 0.526784 14.4645 1.46447C13.5268 2.40215 13 3.67392 13 5C13 6.32608 13.5268 7.59785 14.4645 8.53553C15.4021 9.47322 16.6739 10 18 10ZM17.8711 7.02222L20.6489 3.68889L19.7956 2.97778L17.4067 5.84389L16.1706 4.60722L15.385 5.39278L17.0517 7.05944L17.4817 7.48945L17.8711 7.02222Z" fill="#F7B233"/>
</svg>
