<svg width="12" height="12" viewBox="0 0 12 12" fill="none" xmlns="http://www.w3.org/2000/svg">
<path d="M5 11.5C5 11.6326 4.94732 11.7598 4.85355 11.8536C4.75979 11.9473 4.63261 12 4.5 12H0.5C0.367392 12 0.240215 11.9473 0.146447 11.8536C0.0526785 11.7598 0 11.6326 0 11.5V0.5C0 0.367392 0.0526785 0.240215 0.146447 0.146447C0.240215 0.0526785 0.367392 0 0.5 0H4.5C4.63261 0 4.75979 0.0526785 4.85355 0.146447C4.94732 0.240215 5 0.367392 5 0.5C5 0.632608 4.94732 0.759785 4.85355 0.853553C4.75979 0.947321 4.63261 1 4.5 1H1V11H4.5C4.63261 11 4.75979 11.0527 4.85355 11.1464C4.94732 11.2402 5 11.3674 5 11.5ZM11.8538 5.64625L9.35375 3.14625C9.25993 3.05243 9.13268 2.99972 9 2.99972C8.86732 2.99972 8.74007 3.05243 8.64625 3.14625C8.55243 3.24007 8.49972 3.36732 8.49972 3.5C8.49972 3.63268 8.55243 3.75993 8.64625 3.85375L10.2931 5.5H4.5C4.36739 5.5 4.24021 5.55268 4.14645 5.64645C4.05268 5.74021 4 5.86739 4 6C4 6.13261 4.05268 6.25979 4.14645 6.35355C4.24021 6.44732 4.36739 6.5 4.5 6.5H10.2931L8.64625 8.14625C8.55243 8.24007 8.49972 8.36732 8.49972 8.5C8.49972 8.63268 8.55243 8.75993 8.64625 8.85375C8.74007 8.94757 8.86732 9.00028 9 9.00028C9.13268 9.00028 9.25993 8.94757 9.35375 8.85375L11.8538 6.35375C11.9002 6.30731 11.9371 6.25217 11.9623 6.19147C11.9874 6.13077 12.0004 6.06571 12.0004 6C12.0004 5.93429 11.9874 5.86923 11.9623 5.80853C11.9371 5.74783 11.9002 5.69269 11.8538 5.64625Z" fill="#F7B233"/>
</svg>
