<svg width="1103" height="324" viewBox="0 0 1103 324" fill="none" xmlns="http://www.w3.org/2000/svg">
<g clip-path="url(#clip0_67_475)">
<path d="M1062.77 324H357.115L440.541 0H1062.77C1085.19 0 1103.33 18.1466 1103.33 40.5825V283.747C1103 305.853 1085.19 324 1062.77 324Z" fill="#193F68"/>
<path d="M357.115 324H40.5587C18.136 324 0 305.853 0 283.418V40.5825C0 18.1466 18.136 0 40.5587 0H440.54L357.115 324Z" fill="#F6B22A"/>
<path d="M318.535 133.955H122.336V129.666C122.336 99.6415 144.099 75.2261 168.83 75.2261H366.677C367.007 107.56 347.552 133.955 318.535 133.955Z" fill="#193F68"/>
<path d="M310.95 145.173C310.95 185.426 286.549 231.287 242.363 231.287H204.772C203.783 212.151 187.955 197.303 168.5 197.303C149.045 197.303 133.217 212.481 132.228 231.617H44.1859C44.1859 188.395 70.8954 145.173 119.698 145.173H310.95Z" fill="#193F68"/>
<path d="M168.83 259.002C182.853 259.002 194.22 247.628 194.22 233.597C194.22 219.566 182.853 208.191 168.83 208.191C154.807 208.191 143.439 219.566 143.439 233.597C143.439 247.628 154.807 259.002 168.83 259.002Z" fill="#193F68"/>
<path d="M780.179 176.847C780.179 150.452 800.953 130.986 830.63 130.986C849.425 130.986 864.594 139.894 870.199 154.411L842.171 167.279C839.533 159.69 834.587 157.051 828.981 157.051C820.078 157.051 813.813 164.31 813.813 174.868C813.813 182.456 818.1 187.735 826.343 187.735C832.608 187.735 837.555 185.096 841.182 177.507L865.253 191.365C857.339 205.222 842.501 213.47 823.705 213.47C797.326 213.8 780.179 199.283 780.179 176.847Z" fill="#F6B22A"/>
<path d="M968.464 132.635L952.636 212.481H921.64L922.959 205.222C917.023 210.831 910.099 214.13 901.525 214.13C885.697 214.13 868.88 200.933 868.88 177.177C868.88 150.782 888.335 131.316 911.418 131.316C921.31 131.316 929.224 133.955 934.17 141.214L935.819 132.635H968.464ZM913.726 187.735C922.299 187.735 928.235 180.477 928.235 169.589C928.235 162 923.948 157.051 916.364 157.051C907.79 157.051 901.855 164.31 901.855 175.198C901.855 182.786 906.142 187.735 913.726 187.735Z" fill="#F6B22A"/>
<path d="M1039.69 130.986L1033.75 160.02C1031.12 159.69 1028.81 159.36 1026.5 159.36C1015.62 159.36 1009.02 163.98 1006.38 175.198L999.13 212.151H966.155L981.983 132.305H1012.98L1011.33 140.554C1018.59 133.955 1028.15 130.986 1039.69 130.986Z" fill="#F6B22A"/>
<path d="M548.367 158.371H578.374L569.471 202.582C558.59 210.171 544.41 214.79 527.923 214.79C496.268 214.79 475.494 196.314 475.494 169.259C475.494 133.295 502.203 108.22 541.113 108.22C562.547 108.22 577.715 115.149 587.607 128.346L562.876 147.483C556.281 138.904 549.027 136.265 539.464 136.265C521.658 136.265 510.117 149.132 510.117 167.279C510.117 179.157 518.361 187.405 532.54 187.405C535.837 187.405 539.135 187.075 542.432 186.086L548.367 158.371Z" fill="#F6B22A"/>
<path d="M672.352 180.147H616.625C617.944 186.745 623.22 189.385 631.793 189.385C637.729 189.385 643.994 187.735 649.27 183.776L663.119 203.902C652.237 211.491 640.367 213.8 628.166 213.8C601.786 213.8 584.31 199.613 584.31 176.847C584.31 150.452 604.094 130.986 633.772 130.986C659.162 130.986 674.33 145.503 674.33 166.289C674.33 171.238 673.341 175.857 672.352 180.147ZM617.944 163.98H643.994C643.994 157.381 639.048 153.422 632.123 153.422C624.539 153.422 620.252 158.041 617.944 163.98Z" fill="#F6B22A"/>
<path d="M677.958 176.847C677.958 150.452 698.732 130.986 727.749 130.986C754.129 130.986 770.946 145.503 770.946 167.939C770.946 194.334 750.172 213.8 721.154 213.8C694.775 213.8 677.958 199.283 677.958 176.847ZM737.642 169.589C737.642 162 733.355 157.051 725.771 157.051C717.197 157.051 711.262 164.31 711.262 175.198C711.262 182.786 715.549 187.735 723.133 187.735C731.706 187.735 737.642 180.477 737.642 169.589Z" fill="#F6B22A"/>
</g>
<defs>
<clipPath id="clip0_67_475">
<rect width="1103" height="324" fill="white"/>
</clipPath>
</defs>
</svg>
