<svg width="24" height="24" viewBox="0 0 24 24" fill="none" xmlns="http://www.w3.org/2000/svg">
<path d="M16.3187 3.1342L15.429 2.89355L14.9467 4.67306L15.8374 4.91463C16.6153 5.1252 17.3245 5.53603 17.8941 6.10614C18.4637 6.67626 18.8739 7.38574 19.0839 8.16384L19.3236 9.05359L21.104 8.57322L20.8643 7.68347C20.5704 6.59399 19.996 5.60059 19.1985 4.80236C18.4009 4.00413 17.4079 3.42895 16.3187 3.1342ZM15.476 6.2488L14.5862 6.00815L14.104 7.78765L14.9947 8.02922C15.228 8.09242 15.4406 8.21566 15.6115 8.38666C15.7823 8.55765 15.9054 8.77044 15.9683 9.0038L16.2081 9.89355L17.9885 9.4141L17.7488 8.52343C17.6018 7.97869 17.3146 7.48199 16.9158 7.08288C16.5171 6.68376 16.0206 6.39617 15.476 6.2488Z" fill="#F7B233"/>
<path d="M9.86688 2.89355H2.10403V3.79832C2.09809 7.28134 3.10254 10.6913 4.99565 13.615C6.39082 15.7708 8.22675 17.6067 10.3826 19.0019C13.3062 20.895 16.7162 21.8995 20.1992 21.8935H21.104V14.1307L15.0512 12.7853L13.3683 14.4682C11.8284 13.4787 10.5194 12.1694 9.53031 10.6293L11.2123 8.9464L9.86688 2.89355Z" fill="#F7B233"/>
</svg>
