<svg width="20" height="20" viewBox="0 0 20 20" fill="none" xmlns="http://www.w3.org/2000/svg">
<path d="M18.772 11.1551L17.404 7.0511C17.2056 6.45358 16.8238 5.9338 16.3131 5.56561C15.8024 5.19741 15.1886 4.99954 14.559 5.0001H5.441C4.81139 4.99954 4.19761 5.19741 3.68688 5.56561C3.17615 5.9338 2.79445 6.45358 2.596 7.0511L1.228 11.1551C0.864222 11.3073 0.55356 11.5637 0.335067 11.8919C0.116573 12.2202 -4.809e-07 12.6058 0 13.0001V16.0001C0 16.7381 0.404 17.3761 1 17.7231V19.0001C1 19.2653 1.10536 19.5197 1.29289 19.7072C1.48043 19.8947 1.73478 20.0001 2 20.0001H3C3.26522 20.0001 3.51957 19.8947 3.70711 19.7072C3.89464 19.5197 4 19.2653 4 19.0001V18.0001H16V19.0001C16 19.2653 16.1054 19.5197 16.2929 19.7072C16.4804 19.8947 16.7348 20.0001 17 20.0001H18C18.2652 20.0001 18.5196 19.8947 18.7071 19.7072C18.8946 19.5197 19 19.2653 19 19.0001V17.7231C19.3034 17.5491 19.5556 17.2982 19.7311 16.9957C19.9067 16.6933 19.9994 16.3498 20 16.0001V13.0001C20 12.1691 19.493 11.4581 18.772 11.1551ZM5.441 7.0001H14.558C14.768 7.00005 14.9726 7.06609 15.143 7.18886C15.3133 7.31162 15.4407 7.48489 15.507 7.6841L16.613 11.0001H3.387L4.492 7.6841C4.629 7.2751 5.011 7.0001 5.441 7.0001ZM3.5 16.0001C3.30295 16 3.10785 15.9612 2.92582 15.8857C2.7438 15.8102 2.57842 15.6996 2.43913 15.5603C2.15783 15.2788 1.99987 14.8971 2 14.4991C2.00013 14.1011 2.15835 13.7195 2.43984 13.4382C2.72133 13.1569 3.10304 12.999 3.501 12.9991C3.89896 12.9992 4.28056 13.1574 4.56187 13.4389C4.84317 13.7204 5.00113 14.1021 5.001 14.5001C5.00087 14.8981 4.84265 15.2797 4.56116 15.561C4.27967 15.8423 3.89796 16.0002 3.5 16.0001ZM16.5 16.0001C16.102 16 15.7204 15.8418 15.4391 15.5603C15.1578 15.2788 14.9999 14.8971 15 14.4991C15.0001 14.1011 15.1583 13.7195 15.4398 13.4382C15.7213 13.1569 16.103 12.999 16.501 12.9991C16.899 12.9992 17.2806 13.1574 17.5619 13.4389C17.8432 13.7204 18.0011 14.1021 18.001 14.5001C18.0009 14.8981 17.8427 15.2797 17.5612 15.561C17.2797 15.8423 16.898 16.0002 16.5 16.0001ZM7 2.3781C7.005 1.2901 5.963 0.327098 5.613 0.0340979C5.58118 0.0070428 5.54077 -0.0078125 5.499 -0.0078125C5.45723 -0.0078125 5.41682 0.0070428 5.385 0.0340979C5.033 0.325098 3.995 1.2711 4 2.3771C4 3.2721 4.673 4.0001 5.5 4.0001C6.327 4.0001 7 3.2721 7 2.3781ZM11.5 2.3781C11.505 1.2901 10.463 0.326098 10.113 0.0340979C10.0812 0.0070428 10.0408 -0.0078125 9.999 -0.0078125C9.95723 -0.0078125 9.91682 0.0070428 9.885 0.0340979C9.532 0.325098 8.494 1.2721 8.499 2.3781C8.5 3.2721 9.173 4.0001 10 4.0001C10.827 4.0001 11.5 3.2721 11.5 2.3781ZM16 2.3781C16.005 1.2901 14.963 0.326098 14.613 0.0340979C14.5812 0.0070428 14.5408 -0.0078125 14.499 -0.0078125C14.4572 -0.0078125 14.4168 0.0070428 14.385 0.0340979C14.033 0.325098 12.995 1.2711 13 2.3771C13 3.2721 13.673 4.0001 14.5 4.0001C15.327 4.0001 16 3.2721 16 2.3781Z" fill="#F7B233"/>
</svg>
