<svg width="14" height="11" viewBox="0 0 14 11" fill="none" xmlns="http://www.w3.org/2000/svg">
<path d="M9.05333 8.53333L6.66667 7L4.28 8.53333L5 5.78667L2.80667 4L5.64 3.82667L6.66667 1.2L7.69333 3.82667L10.5267 4L8.33333 5.78667M12 5.33333C12 4.97971 12.1405 4.64057 12.3905 4.39052C12.6406 4.14048 12.9797 4 13.3333 4V1.33333C13.3333 0.979711 13.1929 0.640573 12.9428 0.390524C12.6928 0.140476 12.3536 0 12 0H1.33333C0.979711 0 0.640573 0.140476 0.390524 0.390524C0.140476 0.640573 0 0.979711 0 1.33333V4C0.353622 4 0.692761 4.14048 0.942809 4.39052C1.19286 4.64057 1.33333 4.97971 1.33333 5.33333C1.33333 5.68696 1.19286 6.02609 0.942809 6.27614C0.692761 6.52619 0.353622 6.66667 0 6.66667V9.33333C0 9.68696 0.140476 10.0261 0.390524 10.2761C0.640573 10.5262 0.979711 10.6667 1.33333 10.6667H12C12.3536 10.6667 12.6928 10.5262 12.9428 10.2761C13.1929 10.0261 13.3333 9.68696 13.3333 9.33333V6.66667C12.9797 6.66667 12.6406 6.52619 12.3905 6.27614C12.1405 6.02609 12 5.68696 12 5.33333Z" fill="#F7B233"/>
</svg>
